<svg version="1.2" xmlns="http://www.w3.org/2000/svg" viewBox="0 0 390 369" width="390" height="369">
	<title>favicon</title>
	<style>
		.s0 { fill: #f0f0f0 } 
		.s1 { fill: #eeeeee } 
		.s2 { fill: #f9f9f9 } 
		.s3 { fill: #e9e9e9 } 
	</style>
	<g id="Layer">
		<path id="Layer" fill-rule="evenodd" class="s0" d="m284 295.8l-0.8 0.8-1.3 1.3-0.6 0.7-1.2 1.2-1.2 1.2-2.4 2.5-0.7 0.7-1.5 1.7-2.7 2.8-0.9 1-1.6 1.7-0.8 0.7-1.3 1.4-0.7 0.6-1.1 1-0.6 0.5-0.9 0.8-0.4 0.3-0.7 0.4-0.4 0.2-0.5 0.2-0.3 0.1-0.4-0.1h-0.1l-0.3-0.3v-0.4l-0.1-0.2v-0.7-0.4-1.1-0.5-0.7l0.3 0.5 0.3 0.2 0.6 0.3 0.4 0.1 1.4 0.8 0.2 0.6-0.2 0.5-0.1 0.1h0.1l0.1-0.1 0.9-0.8 0.6-0.5 1.4-1.3 0.8-0.8 1.7-1.8 1-0.9 3.9-4 1.8-1.9 1.8-1.9 0.7-0.8 1.4-1.6 0.6-0.6 2.2-2.3 0.7-0.6 0.3-0.3 0.6-0.4h0.1m-155.7 21h-0.1l-0.2-0.1 0.5-0.2zm1.3-198.8l0.2 0.2 0.4 0.4 0.2 0.3 0.6 0.7 0.7 0.7 1.8 1.9 1 1 2.4 2.5 1.3 1.3 2.9 3 1.6 1.6 3.3 3.3 1.7 1.7 3.5 3.6 3.7 3.6 7.6 7.7 3.8 3.8 7.3 7.2-0.4-0.4-0.2 0.3 0.2 0.5 0.1 0.3 0.9 1.6 0.6 0.9 1.3 1.9 0.6 0.7 0.7 0.8 0.2 0.2 0.6 0.5 0.2 0.1 0.9 0.4 0.4 0.2 0.6 0.3h0.3l0.4 0.1h0.1l0.2-0.1-0.1-0.1-0.1-0.3-0.1-0.3-0.4-0.5-0.3-0.3-0.6-0.7-0.4-0.5-0.9-0.9 0.4 0.4 1.6 1.6 3 2.9 1.4 1.4 2.6 2.4 1.1 1.1 1.9 1.8 0.9 0.9 1.3 1.1 0.2 0.2 0.4 0.3 0.3 0.3h0.2 0.6l0.4-0.1 0.9-0.4 0.9-0.4 2.3-1.4 1.1-0.8 2.3-1.9 2.8-2.9 0.3-0.4 1-1.1 0.1-0.1v0.2h0.1l0.4-0.1 0.4-0.1 0.7-0.3 0.5-0.3 1-0.4 0.6-0.4 3.7-2.6 1.8-2.1 0.6-1.3 0.9-1.8 0.5-0.8 0.3-0.2 0.5-0.2h0.2l0.5 0.2 0.3 0.3 1.5 0.3 1.3-0.3 0.8-0.4 1.6-1 0.8-0.8 1.8-1.6 0.9-1 1-1.1 0.3-0.5v-0.3l-0.1-0.4-0.2-0.2-0.4-0.5-0.4-0.3-0.9-0.6h-0.6l-0.4 0.1-0.7 0.5-0.5 0.4-1 1.1-0.7 0.7-2.6 2.6-0.8 0.7-0.3 0.2-0.5 0.4-0.2 0.1-0.8 0.5-0.9 0.8-0.6 0.5-1.3 1-0.6 0.7-1.5 1.3-0.7 0.6 1.9-1.8 0.8-0.6 1.2-1.1 0.6-0.6 0.9-0.7 0.9-0.6 0.4-0.3 0.2-0.1 0.5-0.5 0.3-0.3 0.8-0.7 0.4-0.4 0.9-0.9 1-1 2.3-2.3 3.8-4 3.8-3.9 7.6-7.8 1.9-1.9 1.2-1.3-0.2 0.5-0.1 0.3v0.5l0.2 0.2 0.3 0.4 0.2 0.2 0.7 0.3h0.4l0.5 0.1 0.3-0.1 0.6-0.2 0.3-0.2 1.3-0.9 0.5-0.6 1.1-1.1 0.2-0.6 0.2-0.5 0.1-0.2-0.1-0.4-0.1-0.2-0.1-0.8 0.4-0.9 0.3-0.4 0.6-0.7 0.1-0.3h-0.1l-0.2 0.1-0.4 0.1-0.7 0.4-0.5 0.3-2.1 1.3-0.9 0.6 1.3-1.3 3.2-3.2 1.6-1.5 2.8-2.8 1.3-1.2 2.2-2.1 0.5-0.4 0.8-0.8 0.4-0.3 0.6-0.6 0.3-0.2 0.5-0.4 0.3-0.2h0.1l0.4 0.2 0.2 0.2 0.6 0.4 1.9 1.7 0.5 0.6-1.7-1.2-1.2-0.3-0.6 0.2-0.9 0.4-0.4 0.5-0.5 1.1v0.8l0.4 1.8 0.8 0.6h0.5l1.8 0.5 1.3 0.6 0.5 0.4 1.1 0.8 0.4 0.2 0.7 0.4h0.3 0.5l0.3-0.2 0.5-0.4 0.4-0.4 0.6-1.2 0.1-0.8-0.1-0.2 0.1 0.2 0.3 0.4 1 1.2 0.6 0.7 1.3 1.5 2.4 2.4 0.8 0.9 1.5 1.6 0.7 0.8 1.2 1.3 0.5 0.7 0.8 0.9 0.5 0.9v0.2l0.4 0.4 0.9 0.2h-0.2l-0.6 0.2v0.2l0.1 0.2 0.3 0.5 0.3 0.3 0.8 0.6 0.5 0.5 2.1 2 0.5 0.6 0.2 0.2 0.3 0.5v0.2l0.3 1.9 0.2 0.5 0.4 0.3 0.3 0.2 1.3 0.7 0.8 0.3 1.4 0.6 0.6 0.4 0.2 0.2 0.3 0.5v0.3 0.6l-0.1 0.4-0.8 1.8-0.8 1.1-0.3 0.3-0.7 1-0.3 1-0.1 0.7-0.2 1.5v1l-0.1 2.1v1.2 2.5l0.1 1.4 0.1 0.7 0.2 1.1 0.1 0.5 0.2 0.9 0.1 0.3 0.3 0.6 0.2 0.2 0.3 0.2h0.2l0.4-0.1 0.2-0.2 0.4-0.4 0.2-0.3 0.5-0.6 0.3-0.1h0.1l0.5 0.5 0.2 0.6 0.2 1.3v0.9l-0.1 1.9-0.1 1-0.2 1.8-0.1 1.6v0.9l0.1 3.9 0.2 1.8 0.2 1.7 0.1 0.7 0.3 1.5 0.1 0.5 0.3 1 0.1 0.3 0.3 0.3h0.1l0.2-0.4 0.2-0.5v-0.3l0.1-0.3v1.5l-0.1 6.1v9.4l-0.1 6.4-0.1 12.9v3.1l-0.1 6.1v3 5.7l-0.1 2.8v5.1 2.4 4.3 2.1l-0.1 3.4v0.8 1.4 1.7 14.7l-7.3 7.2-1.2 1.2-2 2-0.9 1-0.8 0.7-0.1-0.3-0.2-0.2-0.4-0.5-0.4-0.2-1-1.3-0.2-0.8 0.2-0.3-0.4 0.3-1 0.9-0.5 0.4-1 0.9-0.6 0.6-2.1 2-0.8 1-0.2 0.4-0.3 0.8v0.3l0.2 0.6 0.2 0.3 0.6 0.7 0.2 0.4v0.2l-0.3 0.4-0.5 0.2-1.3 0.7-1 0.7-0.4 0.4-1.3 1-1 0.4h-0.3l-0.7 0.2-0.1 0.3 0.2 0.2 0.3 1.2-0.4 1-0.4 0.4-0.9 0.7-0.6 0.3-1.2 0.3-0.6-0.1-2.1 0.1-1 0.6-0.3 0.6-0.6 0.8-0.2 0.2-0.1-0.1-0.1-0.2v-0.3l-0.1-0.8v-0.6l-0.3-2-0.2-0.4-0.1-0.1-0.3-0.3h-0.1l-0.4 0.3-0.2 0.4v-0.5-2.1-4.9-2.5-5.9-3-6.5-3.4l0.1-7.2 0.1-11.2v-3.5-6.7l0.1-3.3v-6.2-3.1-5.9-11-5.1-2.4l-0.1-4.7v-2.2-4.2-2.1l-0.1-3.8v-1.8l-0.1-3.3-0.1-1.6-0.1-2.9v-1.4l-0.1-2.4-0.1-1.2-0.1-2-0.1-0.9-0.1-1.6-0.1-0.7-0.1-1-0.1-0.5-0.2-0.6-0.3-0.4-0.2 0.2-0.2 0.1-0.4 0.4-0.2 0.2-0.6 0.5-0.3 0.3-0.8 0.8-0.9 0.8-2.1 2.1-1.2 1.1-2.8 2.7-1.4 1.4-3.2 3.2-1.7 1.6-3.7 3.7-1.8 1.8-4 4-8 7.9-3.1 3.1-4.3 4.3-1.3 1.4-2.5 2.4-1.2 1.2-2.2 2.2-1 1-1.9 1.9-0.9 0.9-1.7 1.6-0.8 0.7-1.4 1.4-0.7 0.6-1.2 1.1-0.6 0.6-1 0.9-0.5 0.4-0.8 0.7-0.8 0.7-1.2 0.8-0.5 0.3-0.8 0.3-0.8-0.1-0.3-0.3-0.2-0.1-0.5-0.4-0.5-0.5-1.6-1.5-0.9-0.8-2.2-2.1-1.2-1.2-2.8-2.7-1.4-1.4-3.2-3.1-1.7-1.7-3.7-3.5-1.8-1.9-3.9-3.8-5.5-5.5 0.1 0.1 0.5 0.1 0.8 0.2 0.3-0.2 0.5-0.4 0.1-0.5 0.3-2.2-0.1-0.9-0.3-0.6-0.2-0.3-1-1.3-0.7-0.5-1.4-1-0.6-0.3-0.6-0.1h-0.3-0.5l-0.2 0.2-1.1 0.5h-0.7l-0.3-0.2h-0.2l0.3 0.5 0.4 0.5 0.7 1.2 0.2 0.5h-0.2l-0.1 0.2 0.2 0.4-2.6-2.5-1.9-2-3.8-3.7-1.8-1.8-3.4-3.3-1.6-1.6-3-2.8-1.4-1.4-2.4-2.3-1.2-1.1-1.8-1.7-0.8-0.7-1.2-1-0.2-0.2-0.3-0.3-0.3-0.2h-0.1l-0.3 0.1-0.1 0.2-0.2 0.8v0.3l-0.1 0.8v0.5l-0.1 1.2v0.7l-0.1 1.7v0.9 2.3l-0.1 1.2v3 1.5 3.7 2l-0.1 4.5v2.3 5.4 7-1.9l-0.1-1.3v-0.5l-0.2-1.9-0.1-0.7-0.3-1-0.1-0.2-0.4-0.2-0.3 0.1h-0.9l-0.4-0.4-0.1-0.3-0.3-0.4-0.5 0.5-0.2 0.5-0.6 2.1v1.7l0.1 0.7 0.4 1.2 0.3 0.2 0.3 0.2h0.1l0.4-0.2 0.1-0.3 0.4-0.3 0.2 0.4 0.1 0.4 0.2 0.9v0.7l0.1 1.7v1 1.7 0.8l0.2 1.4 0.1 0.6 0.2 1 0.1 0.3 0.3 0.4h0.1l0.4-0.6 0.2-0.9 0.1-0.7 0.1-1.6v47.2 5.6 2.7 4.9 2.4 4.3 2.1l-0.1 3.8v1.8 3.3 1.5l-0.1 2.8v1.3 2.4l-0.1 1.1v1.9 1l-0.1 1v-0.1l-0.2-0.3-0.4-0.4-0.3-0.1-0.7-0.5-0.3-0.6-0.2-0.5-0.2-1-0.1-0.7v-1.5-0.9l-0.5-4.3-0.2-1.2-0.2-0.5-0.4-1-0.2-0.3-0.8-1.8v-1.2l0.3-0.4 0.9-1.9v-1.2l-0.2-0.5-0.5-1-0.6-0.5-1.2-0.9-0.9-0.3-1.8-0.8-1.1-0.3h-0.6l-1-0.1-0.5 0.1-0.8 0.1-0.4 0.2-0.7 0.4-0.3 0.3-0.5 0.5-0.2 0.4-0.3 0.8-0.1 0.5-0.1 0.9 0.1 0.6 0.2 1.6 0.3 0.8 0.2 0.2 0.4 0.3 0.3 0.1h0.8 0.5l2.2 0.1 1.2 0.4 0.4 0.4 0.5 0.8 0.1 0.5-0.1 1.1-0.3 0.6-0.6 1.8-0.1 1.2 0.1 0.3 0.1 1.1-0.3 0.6h-0.2l-0.8 0.9-0.3 1.1-0.1 0.6-0.4 1.6-0.5 0.6h-0.3v0.4l0.4 0.6 0.3 0.5 0.8 0.9-1.9-1.8-1.3-1.2-2.4-2.4-1.2-1.1-2-2.1-0.5-0.5-0.8-0.9-0.3-0.5-0.6-0.7-0.3-0.3-0.3-0.5-0.1-0.5v-0.1l-0.1-0.4-0.2-0.1-0.3-0.4-1.7-1.2-0.7-0.4-1-0.9-0.2-0.2-0.3-0.4-0.1-0.6 0.1-0.3-0.3-0.5-1-0.4h-0.4l-0.7-0.4-0.4-1v-0.2l-0.3-0.5-0.2-0.3-0.5-0.8-2.3-2.4-3.2-2.9-0.1-47.5v-6.5l-0.1-13.3-0.1-3.3v-6.4-3.2l-0.1-6-0.1-3v-5.4l-0.1-2.7-0.1-4.7v-2.3l-0.1-3.8v-0.9l-0.1-1.6v-2.1l0.3-0.8-0.1-0.8-0.1-0.3-0.2-0.2-0.2-3.6v-1.6l-0.1-0.9 0.1 0.2 0.4 3.2 0.2 0.8 0.1 0.3 0.2 0.5 0.1 0.1 0.5 1.1 0.2 1.1v0.6l0.1 0.9 0.1 0.2 0.3 0.2 0.2-0.3 1.3-0.8 1.2-0.3 0.6-0.1 1.1 0.1 0.4 0.1 0.7 0.4v0.4l0.1 0.3h0.2l0.1-0.1 0.7-0.6 0.4-0.6 0.9-1.9 0.1-1.3-0.1-0.4-0.1-0.8 0.2-0.7 0.2-0.4 0.9-1.6 0.7-0.8 1.4-1.3 0.7-0.6 0.3-0.1 0.5-0.1 0.3 0.1 0.6 0.3 0.3 0.3 1.1 1.4 0.5 1v0.4l0.2 0.9 0.2 0.2 0.2-0.2 0.5-0.1 0.5 0.1 0.3 0.1 1.5 0.4 0.8 0.5 1.7 0.8 0.8 0.2h0.3l0.6-0.1 0.3-0.1 0.5-0.5 0.4-0.3 0.7-0.9 0.3-0.6v-0.3-0.6l-0.1-0.4-0.3-0.8-0.2-0.4-0.4-1.4v-1-0.6l0.4-2.3 0.4-1.1 0.9-2.2 0.6-0.8 0.6-0.8 0.3-0.2 0.7-0.5 0.4-0.1 1.6-0.8 0.7-0.9 0.2-0.5 0.1-1.1-0.1-0.5-0.5-1.1-0.4-0.5-0.9-0.7-0.5-0.3h-0.2-0.5l-0.2 0.1-0.5 0.3-0.3 0.3-1.3 1.4-0.7 1.2-0.2 0.5-0.8 1.4-0.8 0.5h-0.4l-1.5 0.6-1.2 0.9-0.5 0.5-1.7 1.3-1.3 0.6-0.7 0.1h-1.2l-0.5-0.1-0.9-0.5-0.1-0.4-0.4-0.5-0.3-0.1-0.3 0.1h-0.6l-0.4 0.2-0.8 0.3-0.6 0.2-2.4 1.3-1 0.8-0.3 0.5-0.4 1.1-0.1 0.8 0.1 1.7 0.1 1.1 0.1 2.8-0.2 1.7-0.2 0.6-0.4 1.1-0.3 0.3-0.3 0.2h-0.1l-0.3-0.1-0.2-0.2-0.2-0.7-0.1-1.1-0.1-0.7-0.1-1.5-0.1-0.9-0.1-1.8v-1l-0.1-2.7-0.2-1.5v-0.6l-0.2-1.2-0.1-0.5-0.3-0.8-0.1-0.2-0.2-0.4h-0.1l-0.2 0.1-0.1 0.2-0.2 0.6v0.5l-0.2 1.2v0.8l-0.1 2.2v0.7h-0.1l-0.1-0.1v-0.4l-0.2-1.1-0.1-0.8-0.6-2.3-0.3-0.4-0.1-0.1-0.4-0.2-0.1 0.1-1 1-0.3 0.7v-0.3l0.1-0.4 0.3-0.6 1.2-1.4 0.1-0.1 0.4-0.4 0.3-0.3 0.6-0.6 0.7-0.7 1.8-1.9 0.9-1 2.1-2.4 3.4-3.8 1.1-1.3 2.6-2.9 1.4-1.5 0.5-0.6-1.5 1.8-0.7 0.8-1.2 1.5-0.4 0.7-0.8 1.2-0.3 0.4-0.4 0.8-0.1 0.3 0.1 0.4 0.1 0.1 0.8 0.6 0.1 0.5-0.2 0.2-0.2 0.5 0.1 0.1 0.2 0.3h0.3 0.6l0.5-0.1 0.9-0.2 0.6-0.3 1.1-0.8 0.5-0.8v-0.3l0.6-1.3 0.8-0.9 0.6-0.3 1.4-1.2 0.6-0.9v-0.4l-0.3-1-0.4-0.2-0.2 0.2h-0.8l-0.5-0.4-0.1-0.3 0.1-0.6 0.3-0.5 0.2-0.2 1.2-1 0.9-0.5 1.3-0.9 1-0.7 0.4-0.5 1.6-2.1 0.6-1.1 0.9-1.7 0.5-0.8 0.2-0.2 0.5-0.4h0.2l0.4 0.1 0.3 0.2 1.6 0.5h1.5l0.8-0.1 1.3-0.3 0.5-0.2 0.3-0.3 0.1-0.1 0.1-0.3-0.1-0.2-0.1-0.6 0.3-0.3h0.2l0.8-0.5v-0.7l-0.1-0.5-0.4-0.9-0.3-0.5-0.8-0.8-0.5-0.3-1.1-0.3-0.9 0.3-0.6 0.4-0.6 0.4-0.4 0.3-0.7 0.7-0.3 0.3 4.1-4.4zm44 44.5l0.1 0.1zm110.7-24.4l0.8 0.5 0.4 0.3 1.2 0.9 0.6 0.5 1.4 1.3 2.3 2.3 0.6 0.6 1 1.1 0.5 0.6 0.8 0.9 0.2 0.3-3.1-3.5-2.3-2.2-1.4-1.4-0.6-0.5-1.2-0.9-0.5-0.3-0.8-0.5zm-163.9 167.4l0.5 0.6 0.1 0.3 0.2 0.7-0.2 0.3-0.4 0.4h-0.3l-0.9-0.4-0.3-0.6v-0.4l0.2-0.9 0.3-0.4h0.2zm-13.2-14.3v0.3l-0.1 0.7 0.3 0.6 0.2 1-0.4 0.2-0.4-0.3-0.7-0.1v0.5l0.2 0.5 0.3 0.7 0.1 0.3 0.3 0.3 0.1 0.1h0.4 0.3l0.7-0.3 0.6-0.2 0.7-0.4 0.2-0.3 0.1-0.2v-0.4l-0.1-0.2-0.2-0.6-0.2-0.4-1-1.3-0.7-0.5h-0.2zm-25.9-67.1l0.1 3v1.5 2.7 1.3 2.5 1.2 2.1 2.1 3.4 1.6l-0.1 2.6v1.1l-0.2 1.7v0.8l-0.2 1-0.3 0.8-0.3 0.5-0.8 0.6-0.8 0.3h-0.1l-0.9-0.2-0.4-0.1-1.1-0.3-0.6-0.1-1.5-0.8-0.8-0.4-1.9-1.2-1.9-1.2-4.2-3.2-0.9-0.8-1.9-1.6-0.8-0.8-1.4-1.4-0.7-0.7-0.8-1.1-0.4-1.2v-0.2l-0.3-0.5-1-0.7-0.4-0.2-0.5-0.5v-0.8l0.1-0.2v-0.4l-0.6-0.3h-0.3l-0.3-0.4 0.1-1.1 0.2-0.4-0.1-0.6-0.7-0.5h-0.3l-0.4-0.4 0.1-1.1 0.1-0.4 0.2 0.6 0.9 0.3h0.6l2 0.3 1.3 0.4 0.3 0.2 1.4 1.4 0.9 1.4 0.4 0.8 0.8 1.5 0.1 0.6 0.2 0.6v0.2 0.5l-0.1 0.1 0.3 0.4 0.5 0.5 0.4 0.3 0.9 0.6 0.6 0.3 1.2 0.6 0.7 0.4 3.9 2.1 1 0.6 0.4 0.3 0.7 0.6 0.2 0.2 0.5 0.7 0.2 0.3v0.1h-0.1-0.1l-0.3-0.2-0.2-0.1-0.9-0.3-0.4 0.3v0.3l0.3 0.7 0.4 0.3h0.3l0.7 0.3 0.3 0.4v0.3l-0.5 0.5h-0.8l-0.4-0.1-0.5-0.1 0.1 0.2 0.1 0.2 0.4 0.4 0.4 0.3 0.7 0.6 0.5 0.4 1 0.8 0.4 0.3 0.9 0.5 0.4 0.2 0.6 0.3h0.3l0.5 0.1h0.2l0.4-0.2 0.1-0.2 0.3-0.4v-0.3l0.1-0.6v-0.5-0.8-0.6l-0.1-1v-0.9-0.6l0.1-1.3v-0.7l0.1-1.5v-0.9l0.2-3.6 0.1-2 0.3-4.1 0.2-2.1 0.3-4.4 0.2-2.4 0.1-1v-0.6zm211.6 16.2l-0.3 0.3-0.5 0.9-0.3 0.6-0.5 1.5-0.1 0.8-0.2 3.3 0.3 2.1 0.3 0.8 0.3 0.8 0.1 0.3 0.4 0.5 0.1 0.2 0.4 0.1h0.2l0.4-0.2 0.1-0.3 0.5-0.7 0.2-0.2h0.1l0.1 0.2v0.2l0.1 0.4v0.4l0.1 0.9 0.1 0.3 0.3 0.5h0.2l0.3-0.5 0.1-0.9 0.1-0.7v-1.4-0.8-1.8-1l-0.2-3-0.2-1.5-0.1-0.5-0.2-0.8-0.2-0.1-0.2-0.1-0.2 0.2-0.4 0.6-0.2 0.3h-0.1l-0.1-0.1v-0.1l-0.1-0.3v-0.3l-0.1-0.7-0.1-0.3h-0.1zm18.2 13.3l1 0.1h-0.5-0.4l-0.5-0.2zm3.1-0.2l-1 0.3h-0.8l0.5-0.1 1.4-0.2zm-4.4-0.6l0.7 0.6-0.3-0.1-0.4-0.5h-0.1v-0.1zm6.4-0.2zm-220.7-12.1l-0.6 0.2-0.6 0.6-0.3 0.8-0.1 0.5-0.4 2.2v1.2l0.1 2.5 0.2 1 0.2 0.9 0.2 0.3 0.4 0.5 0.2 0.1 1 0.3 0.3-0.1 0.7-0.3 0.2-0.4 0.3-0.9 0.1-0.8 0.1-1.8v-1.2l-0.1-3.1-0.2-1.5-0.2-0.4-0.4-0.6h-0.4zm240.1-59.7l0.2 0.6 0.3 1.3 0.1 0.7 0.2 1.7v0.9l0.2 2.4v1.2 3.3 0.8l0.1 2v1 6 4.3l-0.1 24.2-2.6 4.9-0.7 1.3-1.8 2.5-1 1.3-2.2 2.4-1.1 1.2-2.4 2.2-1.3 1-2.4 1.8-1.3 0.9-0.6 0.3 0.5-0.3 0.3-0.6-0.1-0.3-0.5-0.5-0.6-0.2-1.3-0.4-1-0.2-1.6-0.4-0.7-0.2-0.1-0.2-0.1-0.4 0.1-0.2 0.2-0.6 0.3-0.4 1.2-1.1 1.1-0.4 0.5-0.1 1.9-0.4 1.2-0.6 0.5-0.4 0.9-0.5 0.9-0.3 0.5-0.1 2.2-0.5 1.2-0.1 2.1-0.2 1-0.2 0.3-0.2 0.6-0.4 0.2-0.2 0.3-0.6v-0.4l0.5-1.4 0.5-0.7 0.3-0.1 0.5-0.9-0.1-1.1-0.3-0.8-0.4-2.4 0.2-1.7 0.4-0.8 0.6-2.8-0.1-1.1-0.1-0.6-0.3-1.3-0.3-0.7-0.6-2.2-0.2-1.4v-0.7-1.4l0.1-0.7 0.3-1.7 0.2-1 0.9-4.9 0.2-1.7v-0.8l0.1-1.5v-0.6l0.1-1.9 0.1-0.9 0.1-0.3 0.2-0.6 0.1-0.1 0.3-0.2 0.1 0.1 0.5 0.1 0.3-0.1 0.1-0.2 0.1-0.8v-0.6l-0.3-1.3-0.2-0.7-0.6-1.2-0.5-0.4-0.9-1.7-0.3-1.5 0.1-1 0.1-2.1 0.3-1.4 0.6-3 0.5-1.8 0.4-2.9v-0.9-0.2zm-257.5 34.6l0.3 0.1 0.2 0.2 0.3 0.6 0.1 0.4 0.2 0.9 0.1 0.7 0.1 1.4 0.1 0.8v1.9l0.1 1.1v2.4 1.4 2.7 1.2l-0.1 2.2v1l-0.1 1.7-0.1 0.7-0.2 1.3-0.1 0.5-0.2 0.8-0.1 0.3-0.3 0.4-0.1 0.1-0.4 0.1-0.2-0.1-0.4-0.3-0.2-0.3-0.5-1.4-0.3-1.6-0.1-1.1-0.2-2.2-0.1-1.3-0.1-2.6v-1.4l-0.1-2.6 0.1-1.3v-2.5l0.1-1.1 0.2-1.9 0.1-0.7 0.3-1.3 0.2-0.2 0.7-0.7 0.5-0.3zm232.9 0.5l0.2 0.3 0.1 0.2 0.2 0.5 0.1 0.4 0.6 1.7 0.2 1.1 0.5 2.3 0.2 1.2 0.1 4.6-0.3 3.2-0.2 1.4-0.3 1.2-0.2 0.6-0.3 0.9-0.2 0.3-0.3 0.5-0.2 0.1-0.4-0.1-0.2-0.3-0.4-0.4h-0.2l-0.1 0.2-0.3 0.3-0.1 0.4-0.2 0.7-0.1 0.3v-0.3-2.2l-0.1-5.1v-2.5l-0.1-5.5v-4.4 0.2l0.1 0.1 0.3 0.2h0.1l0.8-0.4 0.3-0.5v-0.4l0.1-0.7 0.2-0.1zm-256.8 14.3l0.1 0.4-0.1 0.3v-0.5l-0.2-0.3zm-1-3.4l0.1 0.9v0.4l-0.1 0.6-0.1 0.1v-0.2l-0.1-1-0.1-0.6-0.1-1.7v-0.8zm156.4-10.9l-0.7 0.3-0.4 0.4-1 0.7-0.5 0.6-1.1 1.6-0.2 0.9 0.2 0.1 0.1 0.5-0.1 0.5v0.3l-0.6 1.3-0.4 0.7-0.4 0.7v0.1l0.1 0.1 0.3-0.2 0.6-0.4 0.5-0.5 1.2-1 0.7-0.7 1.7-1.6 0.9-0.9 0.4-0.4 0.6-0.6 0.2-0.3 0.4-0.4 0.1-0.2 0.1-0.2v-0.1h-0.1-0.1l-0.6 0.1-0.6 0.3-1.1 0.2-0.1-0.4 0.2-0.4 0.3-1-0.2-0.2zm-154-38l-0.2 0.9-0.1 0.5-0.1 1.2v0.6 1.5 0.8l0.3 3.4 0.1 1.9v0.8l0.1 1.6v1.9 0.6l-0.1 0.9-0.1 0.4-0.1 0.6-0.1 0.3-0.4 0.7-0.3 0.1-0.8 0.9-0.3 0.9v0.4 1l0.2 0.4 0.4 0.7 0.3 0.1 0.5 0.9 0.2 1.1 0.2 0.8 0.2 1.7 0.1 1 0.2 2.1 0.1 1.1 0.3 4.6v2.1 1.9l-0.1 0.8-0.1 1.5-0.1 0.5-0.4 1.5-0.3 0.7-0.1 0.2-0.3 0.3-0.2 0.1-0.2-0.1-0.1-0.2-0.3-0.4-0.1-0.4-0.2-0.7-0.1-0.5-0.1-1.1-0.1-0.7v-1.4l-0.1-0.8v-2-1.1-0.4l-0.1-0.7v-0.2-0.4l-0.1-0.1v-0.1l-0.1 0.1-0.1 0.3-0.1 0.2-0.1 0.5-0.1 0.4v0.2-6-3.9-1.8-3.2-1.6l0.1-2.6v-1.3l0.1-2.2v-1.1l0.1-1.7 0.1-0.9 0.1-1.4 0.1-0.6 0.2-1.1 0.7-2.3 0.4-0.7 0.4-1.5 0.1-0.4v-0.6l-0.1-0.6-0.1-0.2v-0.4l0.6-0.3h0.3zm286.7 44.4l0.3 0.2 0.7 0.3h0.3l1.2-0.5-0.4 0.2-0.5 0.3-0.8 0.2h-0.4l-0.4-0.4-0.1-0.2-0.2-0.4zm0.9-31.8l0.7 0.1 1.1 0.3 0.6 0.2 0.9 0.7 0.5 0.3 0.8 0.9 0.3 0.6 0.7 1.2 0.2 0.7 0.5 1.6 0.2 0.8 0.3 2 0.2 1 0.1 2.3 0.1 4v1.1 1.8 0.9l-0.1 1.4v0.7l-0.1 1.1v0.6l-0.2 0.8-0.2 0.9-0.4 0.9v-0.3l-0.4-0.8-0.6-0.1-0.3 0.2-0.8 0.6-0.4 0.4-0.7 1-0.3 0.7-1.2 1.5-1.1 0.5-0.5-0.1h-1.2v0.1l-0.1-0.6-0.1-0.4-0.1-1.2-0.1-0.6-0.1-1.5-0.1-0.8v-1.7l-0.1-1-0.1-2.1v-1-2.4l-0.1-4v-5.8l0.1 0.1 0.5 0.5 0.2 0.1h0.3l0.1-0.3 0.1-0.6 0.1-0.6v-1.4-1.1l-0.1-1.6-0.1-0.9-0.1-0.3-0.2-0.5-0.1-0.1-0.2-0.1-0.2 0.1-0.5 0.9v-1.9zm-302.6 28.3l0.7 0.6 0.5 0.3 1 0.5 0.7 0.2 1.5 0.5-1.4-0.3-1.1-0.3-1.6-1.1-0.3-0.4zm294.9-6.6l-0.2 0.2-0.6 1.7v1.6l0.2 0.9 0.2 1 0.1 0.4 0.2 0.7 0.1 0.3 0.2 0.4v0.1l0.2 0.1 0.1-0.1 0.1-0.1v-0.2l0.1-0.5 0.1-0.3v-0.8-0.4l0.1-1.1v-0.6l-0.1-1.9-0.1-0.8-0.1-0.3-0.2-0.4h-0.1zm-290.9-20l0.4 0.3 0.9 0.8 0.3 0.5 0.6 1.1 0.2 0.7 0.3 1.5 0.2 0.8 0.1 0.3 0.2 0.6v0.1l0.2 0.2 0.2 6.6v1.9 3.7 1.8 1.2-0.1l-1.1 2.8-1 2-0.8 0.6h-0.4l-0.9-0.4-0.6-0.5-0.6-0.5-0.4-0.4-0.7-0.8-0.4-0.5-2.6-3-0.1-0.9-0.2-2v-4.5-1.1l0.1-2.1v-1l0.2-1.6 0.1-0.8 0.2-1.1 0.5-0.7h0.3l0.3-0.4-0.1-1.1-0.3-0.8v-0.9l0.1 0.1h0.3 0.2 0.7l0.3 0.2 0.2 0.2 0.4 1.1 0.1 0.9v1.8l-0.2 0.4-0.1 0.1h-0.1-0.2-0.3l-0.2 0.3-0.1 0.3-0.2 1.2v0.9l-0.3 3.1-0.3 2.2-0.2 0.8-0.2 1.5v0.9l0.1 0.3 0.3 0.7 0.3 0.3 0.7 0.7 0.5 0.3 1.4 1 0.6 0.3 0.6 0.2h0.2l0.4 0.1h0.2l0.4-0.8 0.2-1.2 0.1-0.8 0.1-1.7 0.1-1.1v-2.3-1.2l-0.1-2.7v-1.5-0.6l-0.1-1.2-0.1-0.4-0.1-0.9-0.1-0.4-0.4-1.2-0.3-0.5-0.7-0.8-0.5-0.4-1.4-1.4-0.1-0.4v-0.1l0.1-0.3 0.2-0.1 1.4-0.4zm-5.3 24l0.5 1.5 0.1 0.1-0.5-0.7-0.2-0.4-0.3-1.5-0.1-0.7v-0.3zm41.7-53.7l-0.2 1.6-0.3 2.6v0.7l-0.1 1.7v1l-0.1 2.7v2.4l0.1 0.9v2 1.1 2.5 1.3l0.1 3v1.5l0.1 3.5v1.8l0.1 4.1v2.1l0.1 4.7 0.1 7.8v2l0.1 3.2-0.3-0.8-0.3-0.1-0.6-1-0.2-1.2-0.1-1v-1.1l-0.1-0.6v-1.4-0.8l0.1-1.7v-0.9l0.1-2.1v-1.2l0.1-4.7 0.1-2.7-0.1-1.1-0.1-2v-0.6l-0.1-0.5-0.1-0.2-0.1-0.3-0.4 0.3-0.2 0.4-0.1 0.3-0.3 1.4v0.9l-0.1 1.6-0.1 0.4h-0.1l-0.1-0.4-0.1-0.6-0.3-1.3-0.2-1-0.7-5.2-0.1-3.9v-1.9-1.8-0.8l0.1-1.6 0.1-0.6 0.2-1.2 0.1-0.5 0.3-0.7 0.1-0.2 0.8-0.3 0.3 0.3v0.5l0.2 0.2 0.1-0.3 0.1-0.3 0.1-0.7 0.2-0.4 0.2-1.1 0.1-0.6 0.5-2.8 0.3-1.7 0.5-3.4 0.2-1.5zm228.6 8.4l0.6 0.5 0.3-0.2 0.7-0.3h0.3l0.1 0.8v1l0.1 0.8 0.1 1.6 0.1 0.9 0.1 2 0.1 1.1 0.2 5.5-0.1 1.5v0.7l-0.1 1.3v0.5l-0.2 1-0.1 0.4-0.2 0.7-0.1 0.2-0.3 0.4-0.1 0.1h-0.4l-0.1-0.1-0.2 0.1-0.1 0.3-0.1 0.3-0.2 1.2-0.1 0.9-0.1 2.1-0.1 1.2-0.1 2.7v1.4l-0.1 4.4-0.1 2.8-0.1 1.2-0.1 2.3-0.1 0.9-0.1 1.5-0.1 0.4-0.1 1.2v-0.2l-0.1-11.9v-5.9-11.5l0.1-2.8v-5.2-2.5l0.1-4.7v-2.1zm34.9 26.4l-0.6 0.5-0.2 0.6-0.3 1.3v1l-0.3 2.2-0.4 1.1-0.3 0.2-0.7 1-0.3 1.1v0.5l0.3 1.3 0.3 0.4 0.2-0.2 1-0.1 0.9 0.3 0.3 0.2 0.7 0.3h0.3l0.6-0.1 0.2-0.2 0.5-0.5 0.1-0.3 0.3-0.8 0.1-0.5 0.3-2.1-0.1-1.3-0.5-2.7-0.5-1.3-1-1.7-0.6-0.4zm-114.1-0.1l-1.1 0.3-0.8 0.4-0.5 0.3-1.9 1.3-0.8 0.7-0.8 0.8-0.4 0.3-0.6 0.7-0.2 0.3-0.3 0.6v0.2 0.4h0.2l0.7 0.6 0.1 0.6-0.2 0.2-0.2 0.4v0.1l0.1 0.1h0.1l0.8-0.2 0.5-0.4 1.3-0.9 0.7-0.6 1.4-1.2 0.5-0.6 1.9-2.2 0.7-1.1 0.1-0.3v-0.5l-0.2-0.2-0.6-0.1zm-49-6.5l-1.4 0.3-0.6 0.4v0.3l-0.2 0.4-0.5 0.2-0.3 0.1-1.5 0.3h-1l-1.9 0.1-0.8 0.1-0.2 0.2-0.3 0.3v0.4l0.1 0.7 0.2 0.5 1 2.2 1 1.4 0.6 0.6 1.4 1.1 0.9 0.5 1.9 0.9 1.1 0.4 2.2 0.8 0.9 0.3 0.7 0.2 0.3 0.1 0.5 0.1h0.1l0.8-0.3 0.6-0.6 0.3-0.5 0.4-1 0.2-0.5 0.3-1.2v-0.5l-0.1-1.1-0.1-0.5-0.2-0.2-0.4-0.3-0.3-0.1-0.7-0.1h-0.5l-1.3-0.1-0.5-0.2-0.2-0.2-0.3-0.6-0.1-0.4-0.1-0.9v-0.6-1.4l-0.2-0.7-0.2-0.3-0.3-0.3-0.3-0.1-0.6-0.2zm-136.2 0.2l-2.2 0.4-1.5 0.8-0.6 0.6-0.8 1-0.3 0.4v0.2-0.3l0.1-0.6 0.8-1.1 0.4-0.5 1.3-0.6 2.4-0.3zm2.7 0.3l0.1 2.4-0.1-0.3-0.2-1.1-0.2-0.3-0.4-0.6-0.4-0.1-0.6-0.2zm93.5-10.4l-0.6 0.6-0.1 0.4 0.1 0.2 0.3 0.6 0.4 0.3 0.8 0.8 0.6 0.5 1.6 1.3 0.6 0.5 0.5 0.4 0.1 0.1 0.3 0.2v-0.6l0.1-0.8 0.1-0.5-0.4-1.9-0.7-1.2-0.5-0.4-1.1-0.7-0.5-0.1h-1.1zm64-7.1l-1.1 0.5-0.7 0.7-0.2 0.4-0.5 0.9-0.1 0.4-0.1 0.8 0.2 0.3 0.6 0.7 0.3 0.1h0.7l0.3-0.2 0.6-0.5 0.2-0.4 0.4-0.9v-0.6l-0.1-1.6-0.3-0.6zm-76.7-13l-0.7 0.4-0.7 0.5-0.5 0.4-1 0.9-0.6 0.6-1.1 1.1-0.6 0.6-1.9 1.8-1.1 1-0.5 0.4-0.9 0.7-0.4 0.3-0.6 0.3h-0.1l-1.6 0.6-1.3 0.9-0.6 0.6-1.1 1.1-0.4 0.6-0.6 1v0.4l0.4 1.4 0.5 0.9 0.4 0.4 0.9 0.6 0.6 0.1 1.4 0.1 0.8-0.2 2.6-0.5 1.9-0.3 0.7-0.1 1.4-0.2 0.7-0.3 0.3-0.2 0.5-0.5 0.2-0.3 0.4-0.8 0.2-0.5 0.5-2.1v-1.1l-0.2-0.2-0.1-0.3 0.3 0.1 0.4 0.2 0.8 0.2 0.4-0.2v-0.3l-0.4-1-0.7-0.6-0.4-0.3-0.8-0.5-0.2-0.3 0.1-0.2 0.1-0.4 0.3-0.3 0.5-0.6 0.5-0.4 1.2-1.6 0.6-1.2 0.1-0.6 0.2-1.1-0.1-0.4-0.4-0.6zm181.4-3.7l0.4 0.2 1.1 0.5 0.6 0.3 1.4 0.8 2.3 1.3 2.2 1.2 3.9 2.7 1.9 1.3 0.5 0.5-0.2-0.1h-0.1l-0.1 0.2v0.2l0.1 0.4 0.2 0.3 0.4 0.7 0.3 0.5 0.6 0.9 0.4 0.5 1 1.1 0.5 0.6 1.2 1.2 0.5 0.6 1.1 1 0.5 0.4 0.9 0.8 0.3 0.2 0.6 0.4h0.1l0.2-0.2v-0.1l1.1 1.6v0.1l-0.2-0.2h-0.3v0.2l-0.4 0.4-0.5-0.3-0.3-0.3-1.4-0.9-1.1-0.3h-0.4l-0.9-0.2-0.8-0.3-0.4-0.2-1.8-1.1-0.8-0.7-2.2-1.6-0.6-0.3-0.2-0.1h-0.4l-0.8-0.1-0.7-0.6-0.4-0.5-0.7-0.9-0.2-0.3v-0.1l0.2-0.1 0.2 0.1 0.5 0.2 0.5 0.1 0.8 0.3h0.4l0.1-0.1 0.1-0.1v-0.2-0.4l-0.1-0.2-0.1-1.2 0.2-0.5 0.3-0.1 0.2-0.5-0.1-0.5-0.3-0.3-0.5-0.7-0.3-0.4-0.8-0.8-0.5-0.4-1.8-1.6-1-0.6-0.9-0.6-0.4-0.1-0.7-0.3h-0.3l-1.3 0.2-0.3 0.2 0.2 0.2v0.8l-0.3 0.7-0.3 0.4-0.7 0.6-0.3 0.2-0.7 0.2-0.2-0.1-0.4-0.1-0.2 0.2-0.2 0.2-0.4 0.9-0.1 0.3v-1l0.1-2.8 0.1-0.7v-0.2l0.6-0.7 0.6-0.1 0.3 0.2 0.6 0.1 0.1-0.4-0.1-0.4-0.8-1.3-0.6-0.4zm-253.2 18.6l-0.4 0.9-0.1 0.2 0.1-0.4v-0.3l0.4-0.8zm50.6-2.2l-0.7 0.1-1.2 0.5-0.5 0.3-0.6 0.7v0.4 0.5l0.1 0.2 0.3 0.3h0.2l0.6 0.1h0.4l1-0.2 0.6-0.1 2.4-0.6 1-0.4 0.2-0.1 0.2-0.4-0.1-0.2-0.4-0.4-0.4-0.3-1.8-0.5zm-33.8-12.7l-0.1 0.7-0.2 0.5-0.2 0.2-1 1-0.7 0.3-1.1 0.8-0.5 0.5-0.2 0.3-0.3 0.6-0.1 0.4v0.7 0.4 1.4l-0.3 0.8-0.4 0.4-0.8 0.8-0.6 0.5-1.5 0.9-0.9 0.7-2.5 1.4-1.3 0.6-0.5 0.1-0.9 0.2h-0.4l-0.8-0.2-0.3-0.2-0.5-0.2 0.8-0.9 0.6-0.7 1.4-1.5 0.8-0.8 1.7-1.7 1.7-1.6 3.8-3.1 1-0.7 1.7-1.3 2.4-1.4 0.2-0.1zm53.8 12.7v0.3l0.1 0.6 0.2 0.2 0.4 0.3h0.3l0.7-0.2 0.3-0.2v-0.1l-0.3-0.5-0.5-0.4-0.2-0.1-0.7-0.2zm168.8-21.7l0.4 3.1 0.1 0.2v0.6 0.3l0.1 0.9v0.5 1.2 0.6l0.1 1.5v1.5 3.7 2l0.1 4.5-0.2-1.1-0.1-0.5-0.1-0.5-0.1-0.2-0.1-0.2h-0.1l-0.5-0.6-0.2-1.1-0.1-0.8v-1.9-1.3-2.8-1.7l0.4-8.9zm-218.1 6.9l-0.2 0.3-0.2 0.8 0.1 0.4 0.3 1 0.4 0.5 0.6 1.9-0.1 1.2-0.5 0.7-0.6 1.1-0.2 0.3h-0.1l-0.1-0.2-0.1-0.2v-0.6-0.6l-0.6-2-0.9-1.4-0.6-0.5-0.9-0.8-0.4-0.2 0.3-0.1 1.6-0.8 0.7-0.4 1.3-0.5 0.5-0.3h0.2zm86.5-1.8l-0.5 0.2-0.2 0.2-0.5 0.6-0.1 0.4 0.1 0.2 0.2 0.4 0.2 0.3 0.5 0.5 0.3 0.3 1.1 0.6 0.6 0.3 1.3 0.5 0.6 0.1 1.2 0.1 0.3-0.1 0.7-0.2v-0.3l-0.8-1.8-1.2-1.2-0.7-0.4-1.5-0.6-0.6-0.1-0.7-0.1zm-83.4 3.9l-0.1 0.7 0.1-0.7zm34-4.5l0.3 0.3 0.5 0.6 0.1 0.4 0.1 0.8-0.3 0.4-0.4 0.6-0.3 0.2-0.6 0.3h-0.2l-1-0.3-0.5-0.6-0.1-0.3-0.1-0.7v-0.4l0.3-0.7 0.3-0.3 1.1-0.5zm-23.6-1l0.4 0.6h0.3l0.8 0.7 0.3 1v0.6l-0.1 1.1-0.1 0.4h-0.2l-0.1-0.1-0.3-0.4-0.2-0.3-0.5-0.4h-0.2l-0.1 0.2v0.4-0.7-2-0.9-0.3zm217.8 1.7l0.4 0.2h-0.3l-0.3 0.1 0.1-0.1v-0.2zm-0.5-11.5l-0.1 0.9-0.2 0.5-0.6 0.6-0.3 0.2-0.7 0.2h-0.2l0.6-0.1 0.5-0.5 0.9-1.1 0.1-0.8v-0.2zm-223.2-9.7l0.4 0.2 0.7 0.7 0.2 0.4 0.4 1.1v0.6l0.1 0.9 0.1 0.1 0.4-0.1 0.3-0.4 0.6-1-0.3 0.7-0.2 0.7-0.4 1.2-0.2 0.6-0.3 1-0.1 1.1v0.4l-0.5 0.9-0.3 0.5-0.8 1-0.4 0.4-1 0.7-0.5 0.1 0.2-0.1 1.2-1.9 0.5-1.7 0.1-0.8 0.1-1.7-0.2-0.7-0.4-1.3-0.3-0.3-0.8-0.5-0.4-0.1-0.1 0.2-0.3 0.3-0.2 0.3-0.2 0.7-0.1 0.6-0.2 2.1 0.2 1.3 0.3 0.2 0.5 1.2v1l-0.1 0.4-0.3 0.9 0.1 0.1-0.4 0.1h-0.4l-0.9-0.2-0.4-0.2-0.9-0.4-0.2-0.2-0.4-0.4-0.1-0.1-0.1-0.5v-0.2l0.2-0.6 0.5-1.2 0.3-0.6 0.7-1.8 0.7-2.8 0.1-0.6 0.3-1.2 0.2-0.1 0.4-0.3 0.4-0.3 1.3-0.5zm220.5-0.1l0.7 1.7 1 3.1 0.2 0.7 0.4 1.3 0.1 0.6 0.1 0.6v-0.2l-0.3-0.4-0.5-0.8-0.2-0.2-0.1 0.1-0.1 0.2v0.3l-0.1 0.6v0.5l-0.1 1.2-0.1 0.5-0.2 0.1-0.4 0.2h-0.2-0.6l-0.4-0.1-1.2-0.2-0.6 0.1-0.1 0.2-0.1 0.3-0.4-0.4-0.6-0.9-0.3-0.5-0.4-1.1-0.3-1.8v-0.5l-0.2-1.2-0.6-1.2h0.3l0.2-0.2 0.6-0.5 0.3-0.3 1.6-1 1-0.3 0.3 0.1 0.5 0.1 0.2-0.2 0.1-0.1v-0.9l-0.2-0.7-0.4-1.7zm-1.2-2.9l-0.1-0.1 0.1 0.1zm-0.7 6.3l-0.8 0.3-0.3 0.3-0.4 0.7-0.1 0.5v0.9l0.2 0.5 0.3 0.7 0.1 0.1 0.3 0.3 0.2-0.1 0.4-0.2 0.3-0.2 0.6-0.7 0.4-0.5 1.1-1.2 0.3-0.6v-0.1-0.3l-0.2-0.1-0.5-0.2-0.4-0.1zm-219.4-8.9l-0.8 2-0.1 0.6-0.2 0.6v0.2l0.1 0.3h0.1v0.5l-0.4 0.8-0.4 0.5-0.6 0.9v-0.2l0.3-0.9 0.7-2.1 0.9-2.2 0.8-2zm213.9-10.5l2.2 4.2 0.3 0.6h-0.1l-0.2-0.1-0.1 0.3-0.2 0.6-0.1 0.5-0.8 1.8-1 0.9-0.5 0.2-0.9 0.3-0.3 0.3-0.1 0.2v0.5 0.3l0.2 0.8 0.2 0.4 1 2.5 0.1 0.2-0.7-1.6-1.4-3.2-0.4-1.1-1.1-2.3 0.5 0.6 0.4 0.2 0.8 0.2 0.3-0.1 0.6-0.2 0.2-0.2 0.2-0.6-0.2-0.5-0.1-1 0.3-0.5h0.2l0.7-0.7 0.2-1v-0.7l-0.4-1.5-0.4-0.5-0.3 0.2-0.4-0.1v-0.6l0.2-0.4 0.1-0.8zm-169.6 8.4l-1.4 0.3-0.8 0.3-0.3 0.2-1.1 1-0.1 0.5-0.1 1.2 0.3 0.6 0.4 0.5 0.3 0.3 0.7 0.5 0.4 0.2 0.9 0.4 0.4 0.1h0.7l0.3-0.1 0.7-0.3 0.4-0.3 0.8-0.7 0.5-0.6 1.3-2 0.3-1-0.3-0.3-0.7-0.6-0.7-0.2-1.7-0.1zm72.2-76.6h3.5 0.8l1.4 0.1h0.7l1 0.1h0.5l0.6 0.1 0.4 0.1v0.1l0.4 0.1 0.2 0.1 0.7 0.1 3.2 0.3h0.8l2.2 0.3 0.4 0.1h-0.1l-1.4 0.2-0.9 0.2-1.9 0.7-1.1 0.4-2 0.7-1 0.3h-0.5l-1.8-0.1-0.9-0.4-2.3-0.7-1.5-0.4h-0.5l-1.3-0.3-0.5-0.5 0.1-0.3-0.5-0.5-0.8-0.2-0.6-0.1-1.3-0.1h-0.7l-1.6-0.1h-0.8l-3.2 0.2-1.3 0.2-1.2 0.2-0.4 0.1-0.7 0.3v0.2l-0.5 0.7-0.6 0.2h-0.2l-0.5-0.3 0.1-0.6 0.2-0.3 0.1-0.4h-0.2-0.2l-0.4 0.2-0.3 0.1-0.6 0.3-0.3 0.3-2.6 1.1-1.9 0.5-0.9 0.1h-1.7l-0.7-0.1-0.7-0.2-0.2-0.1-0.4-0.3-0.2-0.2-1-0.3-1.2 0.2-0.8 0.3-1.9 0.6-1.1 0.5-2.4 1.1-1.4 0.7-1.5 0.5h-1l-0.2-0.2-0.8-0.2h-0.7l-0.4 0.1-1.7 0.4-0.9 0.3-1.8 0.7-0.6 0.4-0.6 0.4-0.2 0.1-0.3 0.4v0.2l-0.1 0.6-0.3 0.1-0.1-0.2h-0.5l-0.5 0.3-0.3 0.2-1.4 1-0.8 0.8-1.5 1.2-1 0.6-0.5 0.2-1.8 0.6-1-0.1-2.3 0.3-1.3 0.6-0.4 0.4-0.6 0.7-0.3 0.3-0.1-0.1 0.1-0.1 0.1-0.4 0.1-0.3 0.2-0.5v-0.2h-0.1l-0.1 0.1-0.2 0.2-0.3 0.4-0.3 0.3-1.2 1-0.7 0.2-0.1-0.1-0.5-0.2-0.2 0.3v0.4l-0.5 0.8-0.8 0.3-0.4 0.1h-0.8l-0.2 0.1h-0.1v0.2l0.1 0.1 0.2 0.2 0.3 0.2 0.4 0.5v0.4l-0.1 0.3-0.4 0.7-0.4 0.4-0.7 0.8-0.6 0.5-1.3 1.2-0.7 0.5-0.2 0.1-0.5 0.2-0.1-0.1-0.2-0.2v-0.2-0.7l-0.1-0.2h-0.1l-0.2 0.1-0.1 0.1-0.3 0.4-0.2 0.3-0.8 1.8-0.2 1.2 0.1 0.7 0.3 1.2 0.3 0.6 0.8 1.2 0.5 0.6 0.9 0.8 0.4 0.3 0.2 0.1 0.3 0.1 0.1-0.1 0.1-0.2v-0.2l0.1-0.6 0.2-0.1h0.1l0.3 0.1 0.3 0.2 0.5 0.4 0.3 0.3 1.8 1.1 1.2 0.5h0.5l1.3 0.3 0.7 0.5 0.2 0.2 0.7 0.8 0.4 0.1h1l0.7-0.3 0.7-0.4 0.4-0.3 0.9-0.6 0.5-0.4 1-0.8 0.6-0.6 1.2-1.1 0.7-0.6 2-1.9 1.1-1 0.5-0.4 0.9-0.8 0.5-0.3 0.7-0.6 0.4-0.2 1.4-0.6 0.7-0.1 1.5-0.2 1 0.1 1.9-0.2 1.2-0.4 0.4-0.3 0.8-0.5 0.2-0.4 0.3-0.6-0.2-0.3 0.2-0.4 0.5-0.3 0.3-0.2 0.9-0.3 0.5-0.2 1.2-0.4 0.6-0.2 3.6-1.2 1-0.4 0.4-0.2 0.6-0.3 0.2-0.1 0.8-0.4 0.8-0.3 0.5-0.1 2.1-0.4 1.1-0.1 2.1-0.2 0.7 0.1h0.6l0.1 0.1 0.3 0.2-0.1 0.1 0.2 0.8 0.8 0.5 0.6 0.2 1.2 0.1 0.8-0.2 0.4-0.2 1-0.5 0.5-0.3 1-0.8 0.6-0.5 2.8-2.1 0.8-0.5 0.4-0.1 0.6-0.3h0.2l1.8 0.4 1.4 0.5 0.7 0.3 1.4 0.7 0.4 0.3 0.8 0.6v0.2l0.6 0.1 0.9 0.1h0.6 1.5l0.8-0.1 1.9-0.1 1-0.1 3.4-0.2h2l0.8 0.1 1.5 0.2 0.7 0.1 1.2 0.3 0.5 0.3 2.4 0.9 0.7 0.3h0.3l0.6 0.1h0.1l1.3 0.5 0.9 0.6 0.3 0.5 1.1 0.9 0.5 0.2 0.2-0.1 0.7 0.1 0.7 0.4 0.4 0.3 0.8 0.5 0.7 0.3 0.5 0.1 1.9 0.3 1-0.1 1.9-0.2 1-0.3 0.4-0.3 0.8-0.5 0.4-0.4 0.7-0.8 0.4-0.6 1.2-2.4 0.2-0.7 0.1-0.3v-0.6l-0.1-0.1-0.1-0.6 0.1-0.2h0.1 0.3l0.3 0.1 0.6 0.3 0.4 0.2 1.1 0.6 0.4 0.1h0.1l0.2-0.2-0.1-0.1-0.1-0.5-0.1-0.3-0.2-0.7v-0.3l0.1-0.1 0.3-0.1 0.2 0.1 0.4 0.1 0.3 0.1 0.8 0.2 0.3 0.1 0.1-0.1v-0.2l-0.2-0.2-0.3-0.4-0.2-0.3-0.7-1.3-0.2-0.6 0.2-0.2-0.1-0.2 1.8 1.2 0.4 0.4 0.8 0.5h0.5v-0.1h0.2l0.1 0.1 0.5 0.2 1.8 1.4 0.7 0.6 1.2 0.9 0.3 0.2 0.4 0.2 0.4 0.1 0.1-0.1 0.7 0.4 1.4 1.2 0.2 0.2 0.9 0.8 0.4 0.4 1.2 1 4 3.3 1.1 0.9 2.5 2.1 1.3 1.2 2.7 2.5 2.8 2.6 5.6 5.7 1.3 1.4 1.1 1.1-0.4-0.1h-0.1l-0.1 0.1 0.1 0.3 0.3 1.8-0.2 1.1-0.2 0.3-0.5 0.7-0.3 0.1-0.8 0.2-0.5-0.2-0.9-0.3h-0.3v0.1l0.1 0.2 0.1 0.3 0.4 0.6 0.4 0.4 1.6 2 1.2 1.6 0.6 0.6 1.1 1.2 0.6 0.4 0.5 0.3 0.3 0.1 0.4 0.2h0.1l0.4-0.3-0.3-0.3-0.4-0.3-1-1.2v-1l0.2-0.4 0.7-0.7 0.4-0.2 1.1-0.2 0.7 0.2 1.2 0.3h0.2v-0.1l1.4 1.7 2.2 3 1.2 1.9 0.3 0.4-1.6-2.4-1.3-1.7-0.4-0.5-0.5-0.4-0.2-0.2-0.3-0.2h-0.1l-0.2 0.1v0.1l-0.1 0.3 0.1 0.2 0.1 2.2-0.1 1.1-0.1 0.3-0.3 0.6-0.3 0.1-0.5 0.1-0.4-0.1-1.1-0.3-0.3 0.2 0.1 0.4 0.2 0.5 0.1 0.3 0.4 0.6 0.2 0.5 0.5 0.9 0.4 0.5 0.6 1.1-0.8-1.2-0.8-1.2-1.8-2.6-1.9-2.6-3.6-4.9-0.9-1.2-1.6-2.1-0.8-0.9-1.4-1.7-0.6-0.7-0.9-1.1-0.9-0.8h-0.2l-0.5-0.4-0.3-0.2-0.7-0.6-2.6-2.5-0.9-1-1.5-1.2-0.8-0.6-1.2-0.4-0.6-0.1-1 0.4-1.2 1.5-0.4 0.5-1.3 1.3-0.7 0.6-1.7 1-0.9 0.4-1.7 0.6-0.3 0.1h-0.7l-0.7-0.2-0.3-0.2-1.2-0.3-1.9-0.4h-0.6l-1.7-0.7-0.9-0.3-2-1.1-1-0.5-2-1.3-2.4-1.8-0.3-0.3-1.2-0.8-0.6-0.4-1.7-0.9-0.9-0.5-2.1-1-1.1-0.5-2.4-1.1-2.4-1-5.1-1.9-1.2-0.4-2.4-0.8-3.2-0.9-2.6-0.7-5.6-0.8-2.9-0.4-6-0.2-2.9-0.1-5.8 0.4-8 1.2-1.4 0.3-3 0.9-1.6 0.5-3.2 1.1-3.2 1.2-6.3 2.7-1.5 0.7-2.8 1.5-1.3 0.7-2.4 1.4-1.1 0.7-1.7 1.2-1.8 1.7-0.2 0.3-1.2 0.7-0.7 0.3-1.7 0.6-0.9 0.3-1.9 0.4-2.7 0.2h-1.1l-2.1-0.8-3.4-2.2-1-0.9-1.8-1.2-0.4-0.2-0.7-0.3-0.8-0.2-0.2 0.1-0.9 0.6-0.4 0.3-1.3 1.1-0.7 0.6-1.6 1.5-0.9 0.7-1.7 1.7-1.8 1.8-3.5 3.6-0.8 0.8-1.4 1.6-1.7 2.1-0.8 1-2 2.5-0.6 0.6-0.9 1.1-1.3 1.4-0.2 0.2-0.6 0.8-0.3 0.4-0.7 1.1-0.4 0.5-0.8 1.4-0.4 0.7-0.9 1.6-0.8 1.6-1.9 3.7-1 2-1.9 4-0.9 2-1.8 4-0.6 1.4 0.3-1 0.1-0.4v-0.7-0.2l-0.1-0.4h-0.1l-1.1-0.7-0.7-1.1-0.3-0.7-0.5-1.3-0.1-0.6v-1.1l0.2-0.2 0.5-0.1 0.4 0.2 0.2 0.1 1.1 0.9 0.6 0.6 0.7 0.9 0.4 0.4 0.1 0.1 0.2 0.2v-0.1-0.1l-0.1-0.2v-1.3l0.5-0.9 0.4-0.3 0.7-0.7 0.6-0.8 0.2-0.4 1.2-2 0.4-1 0.8-2.1 0.3-0.9-0.1-0.2-0.1-0.4-0.2-0.1-0.5-0.1h-0.5l-1.6-0.3-1.2-0.6-0.3-0.3-0.6-0.6 0.4-0.6 1.2-1.4 0.5-0.6 0.7-0.9 0.2-0.2 0.1-0.3-0.1-0.2h-0.1v-0.2-0.2l0.5-0.6 0.2-0.4 0.9-1 1.8-2.1 0.4-0.4 0.4-0.6-0.1-0.5h-0.1l0.2-0.3 0.1-0.2 0.6-0.8 0.4-0.4 0.9-1 1.8-1.8 0.6-0.6 1.3-1.1 0.6-0.6 1.1-0.8 0.6-0.5 0.9-0.5 1-0.4h0.4l0.7-0.6 0.5-1.6v-0.3l0.3-0.8 0.2-0.4 0.6-1.1 0.6-1.1 1.9-2.5 1-1.2 1.9-2 0.4-0.4 0.8-0.6 0.9-0.4h0.1l0.7-0.5 0.5-0.4 1.2-1.1 0.7-0.6 1.6-1.6 2.7-2.7 1.8-1.7 3.1-3 1.6-1.4 2.7-2.1 0.6-0.5 1.2-0.7 0.6-0.4 1-0.5 0.5-0.3 0.9-0.3 1.2-0.2h0.4l0.7-0.3 0.5-0.7v-0.2l0.6-0.5 1.4-0.3h0.6l0.8-0.2 0.6-0.7v-0.1l0.7-0.5 0.5-0.3 1.5-0.7 0.8-0.4 2-0.8 1.1-0.4 2.3-0.9 2.4-0.8 4.7-1.5 1.1-0.3 1.9-0.5 2.2-0.3 1-0.1 1.9-0.4 0.5-0.1 0.7-0.2 0.8-0.3 0.1-0.1 0.6-0.1h0.3l1-0.1 0.5-0.1h0.9l-0.1 0.5 0.3 0.1 0.7 0.3h0.6l1.4-0.3 0.6-0.4v-0.3l-0.1-0.1 1.1-0.1 4.1-0.1h2.1l4.4-0.1h2.2 4.2zm-111.4 68.4l-0.6 1.8-0.8 1.5-0.5 0.7-1.7 3-1 2.2 1.1-2.7 0.6-1.1 1-2.1 0.5-1 0.9-1.7 0.5-0.8 0.1-0.1zm205.4-6.7l2.1 4-0.1 0.1-0.8-0.1-0.5-0.6-0.2-0.4-0.4-0.9-0.2-0.2h-0.1l-0.3 0.1-0.2 0.2-0.5 0.5-0.3 0.4-0.6 1.1-0.2 0.6v0.3l0.1 0.6 0.1 0.4 0.3 0.9 0.3 0.5 0.8 2 0.2 1.1-0.2 0.2-0.2 0.9 0.1 0.5-0.5-1-1.4-2.8-0.7-1.3-1.4-2.6-1.5-2.4 0.4 0.4 1.1 1.4 0.4 0.3 0.8 0.5h0.2l0.3-0.4v-0.6l0.5-1.1 0.6-0.9 0.5-0.5 0.7-0.9 0.2-0.6-0.1-0.4-0.2-0.8zm-26 8.6l0.5 0.3 0.1 0.2v-0.1l-0.7-0.4zm-0.5 0l-0.3-0.1 0.4 0.1zm-1.5-0.7l0.4 0.2 0.3 0.1-0.6-0.2-1.1-0.8-0.3-0.4zm-175.8-3.1l-0.3 0.1 0.2-0.2h0.1zm1.2-3.4l0.2 0.9-0.3 0.4h-0.3l-0.2 0.1 0.3-1.3 0.2-0.3zm2.6-1.8l-0.7 0.3-0.3 0.5v0.2 0.6l0.1 0.1 0.2 0.3h0.1l0.5-0.3 0.4-0.4 0.2-0.3 0.1-0.7-0.3-0.3zm148.8-36.9l-0.5 0.1-0.1 0.1-0.2 0.2v0.2l0.1 0.5 0.3 0.4 0.2 0.3 0.9 1.1 0.5 0.6 1.1 1.2 0.4 0.7v0.3 0.6l-0.1 0.4-0.3 0.7-0.3 0.5-0.7 1.2-0.1 0.6v0.2l0.2 0.5 0.2 0.3 0.6 0.5 0.4 0.3 1.3 0.9 0.6 0.2 1.2 0.3 0.5-0.2 1.2-0.4 0.6-0.5 1.4-1.2 0.9-0.9 1.2-1.2 0.6-0.5 0.2-0.2 0.4-0.1h0.1l0.1 0.2-0.1 0.3-0.2 1.2 0.1 0.5h0.1l0.8-0.5 0.7-0.7 0.4-0.5 0.7-0.9 0.3-0.4 0.4-0.8v-0.2l-0.5-0.5-0.8-0.2-0.5 0.1-1 0.1-0.5 0.1-1 0.3-0.3 0.3-0.9 0.1-0.6-0.6-0.1-0.6-1-1.5-1-0.6h-0.5l-1.6-0.4-0.8-0.7-0.2-0.4-1.1-0.9-1.3-0.4-0.6-0.1-1.4-0.1zm-3.7 1.1v0.1l0.1 0.2 0.4 0.5 0.3 0.4 0.8 0.8 0.4 0.3 0.8 0.5h0.3l0.7-0.1 0.1-0.3-0.1-0.2-0.3-0.4-0.4-0.2-0.8-0.6-0.6-0.3-1.2-0.6-0.4-0.2zm-18.6-23.2l1.4 0.4 3.1 0.9 1.6 0.5 3.1 1.1 1.6 0.6 3.1 1.2 1.5 0.6 2.7 1.3 1.2 0.6 1.2 0.6h-0.9l-1.2 0.5-0.4 0.4-1.6 1-1.2 0.2-0.5-0.2-0.9-0.3h-0.3l0.2 0.2 0.2 0.1 0.5 0.5 0.4 0.3 0.8 0.7 0.1 0.4-0.1 0.1-0.5 0.3-0.6 0.1-1.2 0.3-0.9 0.1-2.9 0.2-1.4-0.2-0.4-0.3-0.7-0.7-0.1-0.6-0.1-1.1 0.3-0.8v-1.5l-0.6-0.9-0.5-0.4-1.2-0.7-0.9-0.3-2-0.7-1.3-0.3-3.6-1.2-1-0.4-0.4-0.3-0.8-0.5-0.2-0.2-0.8-0.9-0.2-0.4h0.2l0.3-0.1 0.5 0.1 1 0.1 0.8 0.2 1.5 0.3h0.7 0.2l0.3-0.1 0.1-0.1v-0.3l-0.1-0.2-0.8-0.6z"/>
		<path id="Layer" fill-rule="evenodd" class="s1" d="m119.1 285.5l0.5 0.1 1.2 0.3 1.8 0.7 0.8 0.4 1.2 0.9 0.6 0.5 0.6 1 0.1 0.5v1.1l-0.8 1.9-0.3 0.5v1.1l0.8 1.9 0.2 0.3 0.3 0.9 0.2 0.5 0.3 1.3 0.4 4.2v1l0.1 1.4v0.7l0.3 1 0.1 0.5 0.3 0.6 0.8 0.6 0.2 0.1 0.4 0.4 0.2 0.3 0.2 0.6 0.3 0.7v1.7l-0.1 0.9-0.5 1.4-0.2 0.4-0.4 0.4-0.7 0.4-0.2 0.1-0.8-0.4-0.4-0.2-1.1-0.8-0.6-0.4-1.3-1.1-0.7-0.6-1.4-1.3-0.7-0.7-1.2-1.3-0.5-0.5-0.8-1-0.4-0.5-0.4-0.6v-0.4h0.3l0.5-0.7 0.4-1.5 0.1-0.7 0.3-1 0.8-0.9 0.3-0.1 0.2-0.5v-1.1l-0.2-0.4 0.1-1.1 0.6-1.8 0.3-0.6 0.1-1.1v-0.5l-0.6-0.9-0.4-0.3-1.1-0.4-2.3-0.2-0.5 0.1h-0.8l-0.3-0.1-0.4-0.3-0.2-0.3-0.3-0.7-0.2-1.6-0.1-0.6 0.1-1 0.1-0.4 0.3-0.8 0.2-0.4 0.5-0.6 0.3-0.2 0.7-0.4 0.4-0.2 0.9-0.2h0.4m143.4 21.7l0.1 0.2 0.2 0.4 0.3 2v0.5l0.1 0.8v0.3l0.1 0.3 0.1 0.1 0.2-0.3 0.6-0.8 0.3-0.5 1.1-0.7 2.1-0.1 0.6 0.1 1.2-0.3 0.5-0.2 0.7-0.6-0.1 0.2-1 1.5-0.5 0.9v0.2l0.1 0.1 0.3-0.1 0.5-0.3 0.4-0.3 0.8-0.7 0.2-0.2-0.3 0.4-1 0.9-1.7 1.8-0.8 0.8-1.4 1.3-0.6 0.5-0.9 0.8-0.1 0.1h-0.1l0.1-0.1 0.2-0.4-0.2-0.7-1.4-0.8-0.4-0.1-0.6-0.3-0.3-0.2-0.3-0.5-0.2-0.3-0.2-0.9-0.1-1.6v-0.9l0.3-1.5 0.1-0.3 0.2-0.4 0.4-0.3h0.1zm-141.5-2.2l-0.3 0.4-0.2 0.9v0.4l0.3 0.5 0.9 0.4h0.4l0.4-0.4 0.1-0.2-0.1-0.7-0.2-0.3-0.4-0.6-0.7-0.4zm150.6 0.8l-0.1 0.2v-0.3zm2.6-1.7l-0.5 0.6-0.7 0.2h-0.4l-0.9 0.3-0.3 0.4-0.1-0.2 0.1-0.3 0.7-0.2h0.3l1-0.4 0.8-0.6zm9.7-12.7l-0.2 0.2 0.2 0.8 1 1.3 0.4 0.3 0.4 0.4 0.2 0.2 0.1 0.3 0.1 0.2-0.2 0.2-0.6 0.3-0.2 0.1-0.5 0.4-0.3 0.2-0.7 0.7-2.3 2.3-0.5 0.6-1.4 1.6-0.8 0.8-0.2 0.3 0.3-0.8 0.1-0.3h-0.1-0.4l-0.3 0.1-0.7 0.3-0.6 0.2-1 0.6 0.4-0.3 1.3-0.7 0.5-0.1 0.3-0.5v-0.2l-0.2-0.3-0.6-0.8-0.2-0.3-0.2-0.6v-0.3l0.2-0.7 0.3-0.4 0.8-1.1 2.1-2 0.6-0.5 1-1 0.5-0.4 1-0.9 0.4-0.3zm-174.5-0.3l0.7 0.5 1 1.3 0.2 0.4 0.2 0.6 0.1 0.2-0.1 0.5v0.2l-0.3 0.3-0.7 0.3-0.5 0.2-0.7 0.3-0.3 0.1-0.4-0.1h-0.2l-0.2-0.4-0.2-0.2-0.3-0.8-0.2-0.5 0.1-0.5 0.7 0.1 0.4 0.3 0.3-0.1-0.2-1.1-0.2-0.6v-0.7l0.1-0.2 0.4-0.1zm-33.8-130.7h0.1l0.5 0.3 0.9 0.7 0.6 0.5 0.9 1.5 0.6 2v0.5 0.6l0.1 0.3 0.1 0.1v0.1l0.3-0.4 0.6-1 0.4-0.7 0.2-1.2-0.6-1.9-0.4-0.5v-0.2l0.1 0.2 0.8 1.3 0.4 1.1v0.5l0.1 0.9 0.1 0.4 0.5 0.5h0.3l0.1-0.1-0.3 1.5-0.2 1.6-0.5 2.8-0.2 0.7-0.2 1-0.1 0.5-0.2 0.7-0.1 0.3-0.1 0.2-0.1-0.2-0.1-0.4-0.3-0.4-0.7 0.4-0.2 0.1-0.2 0.8-0.1 0.4-0.2 1.2-0.1 0.7-0.1 1.5-0.1 0.9v1.8 1.8l0.2 3.9 0.6 5.3 0.2 1 0.3 1.3 0.1 0.5 0.2 0.4 0.1 0.1v-0.5l0.1-1.6 0.1-0.8 0.3-1.4 0.1-0.3 0.2-0.4 0.3-0.3h0.1l0.1 0.2v0.2l0.1 0.6 0.1 0.6 0.1 2v1 2.8l-0.1 4.7-0.1 1.2v2l-0.1 1v1.7 0.8 1.3 0.7l0.1 1v1l0.3 1.3 0.6 0.9-0.3 0.2-0.1 0.3-0.1 0.3-0.2 1.3v1l-0.2 2.3v1.4 3.1 1.8 2.5l0.1 1.1v1.9 0.7 1.3l0.1 0.4v0.8l0.1 0.2v0.2l0.1-0.1v-0.2l0.1-0.3 0.1-0.8 0.1-0.5 0.1-1.2v-0.3 1l-0.3 4.1-0.2 2-0.2 3.6v0.9l-0.1 1.5v0.7 1.3 0.6 0.9 1l0.1 0.5v0.9 0.4l-0.1 0.7-0.1 0.3-0.2 0.4-0.1 0.2-0.4 0.1-0.2 0.1-0.5-0.1h-0.3l-0.7-0.4-0.4-0.1-0.8-0.6-0.5-0.3-1-0.7-0.5-0.4-0.7-0.6-0.3-0.3-0.4-0.4-0.2-0.2v-0.2h0.4l0.5 0.2h0.7l0.6-0.5v-0.3l-0.3-0.4-0.7-0.3h-0.3l-0.5-0.3-0.2-0.8v-0.3l0.3-0.2 0.9 0.2 0.3 0.2 0.3 0.1 0.1 0.1 0.1-0.1-0.2-0.3-0.6-0.7-0.1-0.2-0.7-0.6-0.4-0.3-1.1-0.7-3.9-2.1-0.7-0.3-1.2-0.6-0.6-0.4-0.9-0.5-0.4-0.3-0.5-0.5-0.2-0.4 0.1-0.2v-0.4-0.2l-0.2-0.6-0.2-0.6-0.7-1.6-0.4-0.7-1-1.4-1.3-1.4-0.4-0.3-1.2-0.3-2.1-0.3h-0.6l-0.8-0.3-0.2-0.7 0.1-0.3v-0.4l-0.6-0.3h-0.4l-0.2-0.3 0.1-0.8 0.1-0.1 0.1-0.6v-0.4l-0.1-0.9-0.4-2.2 0.1 0.1v0.1l0.2-0.1v-0.1l0.2-0.4v-0.4l0.1-0.8v-0.5l0.1-1.2v-0.7-1.5-1l-0.1-1.9v-1.1-0.4l-0.1-0.8v-0.2-0.5l-0.1-0.1-0.1-0.2v0.1l-0.1 0.1v0.1-0.2l0.1-0.2 0.1-0.1 0.1 0.1v0.4 0.2l0.1 0.7v0.4 1.1l0.1 2v0.8l0.1 1.5v0.6l0.1 1.1 0.1 0.5 0.2 0.8 0.1 0.3 0.3 0.4 0.1 0.2 0.3 0.1h0.1l0.3-0.3 0.1-0.2 0.3-0.7 0.4-1.6 0.1-0.5 0.1-1.4 0.1-0.8v-2-2l-0.3-4.6-0.1-1.2-0.2-2.1-0.1-1-0.2-1.7-0.2-0.8-0.2-1.1-0.5-0.8-0.3-0.2-0.4-0.7-0.2-0.3v-1-0.5l0.3-0.9 0.8-0.8 0.3-0.1 0.4-0.8 0.1-0.2 0.2-0.7v-0.4l0.1-0.9v-0.5-2l-0.1-1.5v-0.9l-0.1-1.9-0.3-3.4v-0.8-1.4-0.7l0.1-1.2 0.1-0.5 0.2-0.8 0.6-0.9 0.3-0.4 0.4-0.9-0.1-1.1-0.1-0.2-0.1-0.2v-0.1l0.2-0.1h0.1l0.3 0.2 0.8 0.4 0.3 0.2 0.8 0.1h0.4l0.9-0.2 0.6-0.1 1.2-0.6 2.5-1.4 1-0.6 1.4-1 0.6-0.5 0.8-0.8 0.4-0.4 0.3-0.8 0.1-1.4-0.1-0.4 0.1-0.7v-0.4l0.3-0.6 0.2-0.3 0.5-0.5 1.2-0.8 0.6-0.3 1-1 0.2-0.2 0.3-0.5v-0.7-0.2-0.3l0.1-0.1zm219.3 79.9l0.1 0.3 0.1 0.7v0.2l0.1 0.3v0.2h0.1 0.1l0.2-0.2 0.4-0.6 0.2-0.3 0.3 0.1 0.1 0.1 0.2 0.8 0.1 0.5 0.2 1.5 0.2 3v1 1.8l0.1 0.9-0.1 1.4v0.6l-0.2 0.9-0.2 0.6h-0.2l-0.4-0.5-0.1-0.3-0.1-1v-0.3-0.5l-0.1-0.2-0.1-0.1h-0.1l-0.2 0.2-0.4 0.7-0.2 0.2-0.4 0.2-0.2 0.1-0.3-0.2-0.2-0.1-0.3-0.6-0.2-0.3-0.3-0.7-0.3-0.9-0.2-2.1 0.1-3.2 0.2-0.9 0.4-1.4 0.3-0.7 0.5-0.8 0.3-0.4 0.4-0.1zm22-79.9l0.4 0.2 0.9 0.5 0.9 0.6 1.9 1.6 0.4 0.4 0.8 0.9 0.3 0.3 0.6 0.8 0.2 0.3 0.2 0.5-0.3 0.4-0.2 0.1-0.3 0.6 0.1 1.1 0.1 0.3 0.1 0.4v0.1l-0.2 0.2h-0.1-0.4l-0.8-0.2-0.4-0.2-0.6-0.1-0.2-0.1-0.1 0.1h-0.1l0.2 0.4 0.7 0.9 0.4 0.5 0.7 0.5 0.8 0.2 0.1-0.1 0.3 0.1 0.2 0.1 0.6 0.3 2.2 1.6 0.8 0.7 1.8 1 0.4 0.2 0.8 0.3 0.9 0.2h0.5l1.1 0.4 1.3 0.8 0.4 0.4 0.5 0.2 0.3-0.3v-0.3h0.3l0.6 0.7 0.1 0.2 0.2 0.6v0.4 0.8l-0.4 3-0.5 1.8-0.6 2.9-0.3 1.4-0.1 2.2-0.1 1 0.3 1.5 0.9 1.6 0.5 0.4 0.6 1.3 0.2 0.6 0.3 1.4 0.1 0.6-0.2 0.8-0.1 0.2-0.3 0.1-0.5-0.2h-0.1l-0.3 0.1-0.1 0.1-0.2 0.6-0.1 0.3-0.1 1-0.1 1.8v0.6l-0.1 1.5v0.8l-0.2 1.8-0.8 4.8-0.3 1.1-0.3 1.6-0.1 0.8v1.4 0.7l0.2 1.3 0.6 2.2 0.3 0.8 0.3 1.3 0.1 0.6 0.1 1-0.6 2.8-0.4 0.9-0.2 1.6 0.4 2.5 0.3 0.8 0.1 1.1-0.5 0.8-0.3 0.1-0.5 0.7-0.5 1.5v0.4l-0.3 0.5-0.2 0.3-0.6 0.3-0.3 0.2-1 0.2-2.1 0.3h-1.1l-2.3 0.5-0.5 0.1-0.9 0.4-0.9 0.5-0.4 0.3-1.3 0.6-1.9 0.5h-0.5l-1.1 0.5-1.2 1-0.3 0.4-0.2 0.6-0.1 0.3 0.1 0.3 0.2 0.2 0.6 0.3 1.6 0.3 1 0.2 1.4 0.4 0.5 0.3 0.5 0.5 0.1 0.2-0.3 0.6-1.5 1.1-1 0.5-1.8 0.7-0.9 0.3-1.5 0.3-0.7 0.1-1.2-0.2-0.5-0.1-0.7-0.6-0.2-0.2-0.2-0.7-0.1-0.4-0.2-1.1-0.2-1.2-0.2-2.9-0.1-1.5v-3.1l0.1-0.8 0.1-1.3 0.3-1.8 0.1-0.5 0.2-0.8 0.1-0.3 0.3-0.4 0.1-0.1h0.2l0.4 0.4 0.2 0.3h0.4 0.2l0.3-0.5 0.2-0.3 0.3-1 0.2-0.5 0.3-1.3 0.2-1.3 0.3-3.2-0.1-4.6-0.2-1.3-0.5-2.3-0.2-1-0.5-1.7-0.2-0.4-0.2-0.5-0.1-0.3-0.2-0.2-0.1-0.1-0.1 0.2-0.1 0.7-0.1 0.3-0.3 0.6-0.8 0.3h-0.1l-0.3-0.1-0.1-0.2-0.1-0.4 0.2-2v-0.4l0.2-1.5 0.1-0.9 0.1-2.3 0.1-1.2 0.1-2.8 0.1-4.4v-1.4l0.1-2.7 0.1-1.3 0.1-2 0.1-0.9 0.2-1.2 0.1-0.3 0.1-0.3 0.1-0.1 0.2 0.1h0.3l0.2-0.1 0.3-0.4 0.1-0.2 0.2-0.7 0.1-0.4 0.1-1 0.1-0.5 0.1-1.3v-0.7l0.1-1.5-0.2-5.5-0.1-1.1-0.1-2-0.1-0.9-0.1-1.6-0.1-0.8v-1l-0.1-0.8h-0.3l-0.7 0.3-0.3 0.2-0.6-0.5-0.7-1.5-0.2-0.7-0.1-1.5 0.1-0.8 0.2-1.4 0.1-0.7 0.5-0.9 0.1-0.1 0.2-0.2h0.4l0.3 0.2 0.6-0.3 0.4-0.1 0.6-0.7 0.3-0.3 0.4-0.7-0.1-0.8-0.2-0.2 0.4-0.3 1.2-0.2h0.3zm-218.7 80.3l0.5 0.6 0.2 0.4 0.2 1.4 0.1 3.2v1.2l-0.1 1.8-0.1 0.7-0.4 1-0.2 0.4-0.6 0.3h-0.4l-1-0.2-0.2-0.1-0.4-0.6-0.1-0.3-0.3-0.9-0.2-0.9-0.1-2.5 0.1-1.3 0.3-2.2 0.2-0.5 0.3-0.7 0.6-0.6 0.5-0.3h0.8zm-19.2-24.8l-0.8 0.8-0.2 0.2-0.3 1.2-0.1 0.7-0.2 2v1l-0.1 2.5v1.3 2.7 1.3l0.1 2.6 0.1 1.3 0.2 2.3 0.1 1 0.3 1.6 0.5 1.5 0.3 0.2 0.4 0.3 0.2 0.1 0.3-0.1h0.2l0.2-0.5 0.2-0.3 0.2-0.8 0.1-0.5 0.1-1.3 0.1-0.7 0.1-1.7v-0.9l0.1-2.3v-1.1-2.8-1.4-2.3-1.2l-0.1-1.8-0.1-0.9-0.1-1.4-0.1-0.7-0.2-0.9-0.1-0.4-0.3-0.5-0.1-0.2-0.4-0.2h-0.2zm132.9 0.5l-0.3 1-0.3 0.4 0.1 0.3 1.1-0.1 0.6-0.3 0.7-0.1 0.1-0.1 0.1 0.1v0.1l-0.1 0.2-0.1 0.2-0.4 0.4-0.2 0.2-0.7 0.7-0.3 0.4-0.9 0.9-1.7 1.6-0.8 0.7-1.1 1-0.5 0.5-0.6 0.4-0.3 0.2-0.1-0.1v-0.1l0.4-0.7 0.4-0.7 0.5-1.3 0.1-0.3 0.1-0.5-0.2-0.5-0.2-0.2 0.3-0.8 1.1-1.6 0.5-0.6 0.9-0.7 0.5-0.4 0.7-0.3 0.3-0.1zm-83.7-10.4v0.3l0.4 0.4h0.9l0.3-0.1 0.4 0.2 0.2 0.2 0.2 1 0.1 0.7 0.2 1.9v0.5l0.1 1.3 0.1 2.3v1.3 2.3 1l-0.2 1.7v0.7l-0.2 1-0.5 0.5h-0.1l-0.3-0.4-0.1-0.3-0.2-1-0.1-0.6-0.1-1.4-0.1-0.8v-1.7-1l-0.1-1.7v-0.7l-0.2-0.9v-0.4l-0.2-0.4-0.4 0.3-0.2 0.3-0.3 0.2h-0.2l-0.3-0.1-0.3-0.3-0.4-1.2-0.1-0.7v-1.7l0.6-2.1 0.3-0.5 0.4-0.5zm-45.3 11.4l0.1 0.2 0.1 0.8v0.4 1.1 0.6 0.5-1.3-0.6l-0.1-1.1-0.1-0.4-0.1-0.6zm-0.4-0.9l0.1 0.1-0.1-0.1zm-38.8-23l0.1 0.4 1.4 1.4 0.5 0.4 0.7 0.8 0.3 0.4 0.4 1.3 0.1 0.3 0.1 0.9 0.1 0.5v1.2l0.1 0.6v1.5l0.1 2.6v1.3l-0.1 2.2v1.1l-0.1 1.8-0.1 0.8-0.2 1.1-0.4 0.8-0.2 0.1-0.4-0.1-0.3-0.1-0.5-0.2-0.7-0.3-1.3-0.9-0.5-0.4-0.7-0.6-0.3-0.4-0.3-0.6-0.1-0.4-0.1-0.8 0.3-1.5 0.2-0.8 0.3-2.2 0.2-3.1 0.1-0.9 0.2-1.3 0.1-0.2 0.2-0.3 0.3-0.1 0.1 0.1 0.2-0.1 0.1-0.1 0.1-0.3 0.1-1.8-0.1-0.9-0.5-1.1-0.1-0.2-0.4-0.2-0.6-0.1-0.2 0.1-0.3-0.1h-0.1l0.1-0.1 0.6-0.5 0.5-0.5 1-0.7zm303.5 4.7l1 1.7 0.5 1.3 0.4 2.6 0.1 1.3-0.2 2.2-0.1 0.4-0.3 0.8-0.2 0.4-0.4 0.5-0.3 0.2-0.5 0.1h-0.3l-0.7-0.3-0.4-0.3-0.8-0.2-1 0.1-0.2 0.1-0.4-0.4-0.2-1.2v-0.6l0.3-1 0.7-1 0.3-0.2 0.4-1.1 0.3-2.2v-1l0.3-1.4 0.2-0.5 0.5-0.6 0.3-0.1zm-113.9-0.2l0.2 0.1v0.5l-0.1 0.4-0.7 1-1.9 2.2-0.6 0.6-1.3 1.2-0.7 0.6-1.3 0.9-0.5 0.4-0.8 0.2h-0.1l-0.1-0.1v-0.1l0.2-0.3 0.2-0.3-0.1-0.6-0.7-0.6h-0.2v-0.4-0.2l0.3-0.6 0.2-0.3 0.6-0.6 0.3-0.4 0.9-0.7 0.8-0.8 1.9-1.3 0.5-0.2 0.8-0.5 1.1-0.3h0.5zm-71-0.7l0.7 0.2 1.3 1 0.7 0.6 1 1.3 0.2 0.3 0.3 0.6 0.1 0.9-0.3 2.2v0.5l-0.5 0.4-0.3 0.1-0.9-0.1-0.5-0.1-1-0.7-0.6-0.4-1.1-1.2-0.6-0.7-0.8-1.1-0.1-0.2-0.1-0.3v-0.2h0.2l-0.1-0.5-0.8-1.2-0.4-0.5-0.3-0.6 0.2 0.1 0.3 0.2h0.7l1.2-0.5 0.1-0.2 0.5-0.1h0.3zm21.9-5.7l0.2 0.1 0.4 0.4 0.1 0.2 0.2 0.7 0.1 1.4v0.7l0.1 0.9v0.4l0.3 0.5 0.2 0.2 0.6 0.2 1.2 0.1h0.5l0.7 0.1 0.3 0.1 0.4 0.3 0.2 0.2 0.2 0.5v1.1 0.6l-0.3 1.1-0.1 0.6-0.5 0.9-0.2 0.5-0.6 0.6-0.9 0.4h-0.1l-0.4-0.2-0.3-0.1-0.8-0.2-0.8-0.3-2.2-0.8-1.1-0.4-1.9-0.9-0.9-0.5-1.4-1.1-0.7-0.6-1-1.3-1-2.3-0.1-0.5-0.1-0.7v-0.3l0.2-0.4 0.2-0.2 0.8-0.1 1.9-0.1h1l1.5-0.3h0.4l0.4-0.3 0.3-0.4v-0.2l0.6-0.5 1.4-0.3h0.4zm-134.2 6.4v0.4 0.7 0.3l-0.1 0.3v0.1l-0.1 0.1-0.1-0.2-0.1-0.1h0.1v-0.4l0.2-0.9v-0.7-0.2zm-1-1.6l0.4 1.3v0.6l0.1 0.5-0.1-0.1-0.2-0.8-0.3-1.6-0.1-0.5zm-4.4-4.2l-1.4 0.9-0.5 0.6-1 1.2 0.3-0.5 0.7-0.9 0.6-0.6 1.5-0.9h0.2zm2.2 0.8l0.6 0.6-0.4-0.3-0.5-0.3-1-0.3-1 0.3h0.1l0.8-0.5h0.2zm252-2v-0.3l0.2-1.5 0.1-1 0.1-2.2 0.1-1.3v-2.6-1.3-2.4 2.4 1.3 2.6 1.2l-0.1 2.2-0.1 1-0.2 1.5-0.1 0.4-0.1 0.4-0.2 0.4 0.2-0.4zm-153.9-9.8l0.5 0.1 1 0.7 0.5 0.5 0.7 1.1 0.4 1.9v0.6l-0.1 0.8-0.1 0.5-0.2-0.2-0.2-0.1-0.5-0.4-0.5-0.4-1.6-1.3-0.6-0.6-0.9-0.7-0.3-0.4-0.3-0.5-0.2-0.3 0.2-0.4 0.6-0.6 0.5-0.3zm151.8-0.5v3.6-0.3l-0.1-3.8v-0.9l0.1-1.6 0.2-1.9v-0.1l-0.2 3.2zm0.1 3.6v0.6-0.5zm-89-9.3l0.1 1.5v0.6l-0.4 1-0.2 0.4-0.6 0.5-0.3 0.2-0.7-0.1-0.3-0.1-0.6-0.6-0.2-0.3 0.1-0.8 0.1-0.5 0.5-0.9 0.3-0.4 0.6-0.7 1.1-0.5h0.2zm-76.5-13l0.1 0.4-0.2 1.1-0.1 0.6-0.6 1.2-1.2 1.6-0.5 0.4-0.5 0.6-0.3 0.3-0.1 0.4-0.1 0.2 0.3 0.3 0.7 0.5 0.4 0.3 0.7 0.6 0.4 1v0.3l-0.3 0.2-0.9-0.2-0.4-0.2-0.3-0.1 0.1 0.3 0.2 0.2v1.1l-0.5 2.1-0.1 0.5-0.4 0.8-0.3 0.3-0.5 0.5-0.3 0.3-0.7 0.2-1.3 0.3h-0.8l-1.9 0.3-2.6 0.5-0.7 0.2-1.4-0.1-0.7-0.1-0.9-0.6-0.4-0.4-0.5-0.9-0.4-1.4v-0.4l0.7-1 0.3-0.6 1.2-1.1 0.6-0.6 1.2-0.8 1.6-0.7h0.1l0.6-0.3 0.4-0.3 0.9-0.7 0.5-0.4 1.2-1 1.8-1.8 0.6-0.6 1.2-1.1 0.5-0.6 1-0.8 0.5-0.5 0.7-0.5 0.7-0.4h0.4zm-18.9 12.5l0.5 0.3 0.3 0.4 0.2 0.2-0.3 0.4-0.2 0.1-1 0.4-2.4 0.6-0.6 0.1-0.9 0.1-0.5 0.1-0.5-0.1-0.3-0.1-0.3-0.2-0.1-0.2v-0.5-0.4l0.7-0.7 0.4-0.3 1.2-0.5 0.7-0.1 1.4-0.1zm17.8-0.6l0.3 0.2 0.4 0.4 0.3 0.5v0.1l-0.3 0.2-0.7 0.1h-0.3l-0.4-0.3-0.2-0.2-0.1-0.5v-0.3l0.3-0.3zm167.6-23.9l-0.4 10.2-0.1 1.7v2.8 1.3l0.1 1.9v0.8l0.3 1.1 0.4 0.6h0.1v0.1l-0.3 0.3-0.3 0.6-0.2 0.5-0.2 1-0.1 0.6-0.1 0.5 0.1-1.1-0.1-0.8-0.2-1.4-0.2-0.5-0.4-0.5-0.2-0.1-0.3 0.2-0.4 0.5-0.3 0.4-0.4 0.4-0.2 0.2-0.4 0.1h-0.1l-0.4-0.3-0.1-0.2-0.3-0.5-0.2-0.4-0.2-0.8-0.1-0.5-0.2-1.2v-0.6l-0.1-1.5-0.1-2.5v-1.2l0.1-2.1v-1l0.2-1.5 0.2-0.7 0.3-1 0.6-0.9 0.4-0.3 0.7-1.1 0.8-1.8 0.1-0.4v-0.7-0.3l-0.3-0.5 0.3 0.2 0.4 0.2 0.7 0.4h0.2l0.2 0.1 0.1-0.1v-0.2-0.2l-0.4-0.9zm-1-1l-0.1-0.1 0.1 0.1zm-79.9 17.3l-1.8 2.1-3.7 2.6-0.5 0.3-1.1 0.5-0.4 0.2-0.8 0.3-0.3 0.1-0.4 0.1h-0.2l0.1-0.2 0.1-0.2v0.2h0.1 0.4l0.3-0.1 0.8-0.3 0.4-0.2 1-0.4 0.6-0.3 3.6-2.7 1.9-2.2zm-122-10.6l0.3-1.2v-0.7l-0.3-1.6-0.2-0.3 0.2-0.2 0.2-0.1 0.3 0.2 0.2 0.1 0.3 0.4 0.6 2.3 0.1 0.8 0.1 1 0.1 0.4 0.1 0.2v-0.8l0.1-2.1 0.1-0.8 0.1-1.2 0.1-0.5 0.1-0.6 0.1-0.3 0.2-0.1h0.1l0.3 0.4 0.1 0.3 0.2 0.8 0.1 0.4 0.2 1.2 0.1 0.7 0.1 1.5 0.1 2.6 0.1 1 0.1 1.9v0.9l0.1 1.5 0.1 0.7 0.2 1 0.2 0.8 0.1 0.2h0.3 0.2l0.3-0.2 0.2-0.2 0.5-1.1 0.2-0.7 0.2-1.7-0.1-2.7-0.2-1.1v-1.7-0.8l0.4-1.1 0.3-0.5 1-0.9 2.5-1.2 0.5-0.3 0.8-0.3 0.4-0.1 0.6-0.1h0.3l0.4 0.1 0.3 0.4 0.2 0.5 0.8 0.4 0.5 0.2 1.3-0.1 0.6-0.1 1.4-0.5 1.7-1.3 0.4-0.5 1.2-0.9 1.5-0.6h0.4l0.8-0.6 0.9-1.3 0.1-0.5 0.7-1.2 1.3-1.5 0.3-0.2 0.5-0.3 0.3-0.1 0.4-0.1 0.3 0.1 0.4 0.2 0.9 0.8 0.5 0.4 0.4 1.1 0.2 0.6-0.2 1-0.1 0.5-0.8 0.9-1.6 0.9-0.3 0.1-0.7 0.4-0.3 0.3-0.7 0.8-0.6 0.8-0.9 2.1-0.4 1.2-0.4 2.3v0.5l0.1 1.1 0.3 1.3 0.3 0.5 0.2 0.8 0.1 0.4v0.6 0.3l-0.3 0.6-0.7 0.8-0.3 0.4-0.6 0.4-0.3 0.2-0.6 0.1h-0.3l-0.8-0.3-1.6-0.8-0.9-0.4-1.4-0.5-0.4-0.1h-0.5l-0.5 0.1-0.1 0.2-0.3-0.2-0.2-0.9v-0.4l-0.5-1.1-1.1-1.3-0.3-0.3-0.6-0.3-0.2-0.1-0.6 0.1-0.3 0.1-0.7 0.5-1.3 1.4-0.8 0.8-0.9 1.6-0.2 0.3-0.1 0.7v0.8l0.2 0.5-0.2 1.2-0.9 2-0.4 0.6-0.7 0.6h-0.1-0.2l-0.1-0.3v-0.3l-0.7-0.4-0.4-0.2h-1.1-0.6l-1.2 0.3-1.2 0.9-0.2 0.3-0.4-0.2-0.1-0.2-0.1-1v-0.6l-0.2-1-0.5-1.1-0.1-0.1-0.2-0.5-0.1-0.3-0.2-0.9-0.4-3.2-0.1-0.7v-1.1-0.5l0.1-0.6v-0.2l0.2-0.1 0.5 0.5 0.2 0.3 0.3 0.4 0.1 0.1h0.2l0.1-0.1v-0.4l0.1-1v-0.7l-0.3-0.9-0.8-0.7h0.1zm-1 12.6l0.1 0.3 0.1 0.8-0.3 0.8-0.2 0.2-0.2-0.4-0.1-0.2v-0.9-0.6l0.2-0.5zm134.8-14.4l0.9 0.6 0.4 0.3 0.5 0.5 0.1 0.2 0.1 0.4v0.2l-0.3 0.6-0.9 1.1-1 1-1.7 1.6-0.9 0.8-1.6 1-0.8 0.4-1.3 0.3-1.5-0.4-0.3-0.2-0.5-0.2h-0.2l-0.5 0.2-0.2 0.2 0.7-1.4 0.8-0.5h0.1l0.5-0.4 0.3-0.2 0.8-0.7 2.6-2.6 0.7-0.8 1-1 0.5-0.4 0.8-0.5 0.3-0.1zm-61.3 3.5l0.7 0.1 1.4 0.7 0.7 0.4 1.2 1.1 0.8 1.8v0.3l-0.6 0.2-0.4 0.1-1.2-0.1-0.6-0.1-1.3-0.5-0.6-0.2-1.1-0.7-0.3-0.3-0.5-0.5-0.2-0.3-0.2-0.4-0.1-0.2 0.1-0.4 0.5-0.6 0.2-0.2 0.5-0.2h0.3zm-52.3-0.2l-0.3 0.2-0.2 0.8-0.1 0.3 0.2 0.7 0.1 0.4 0.4 0.5 1 0.3h0.3l0.6-0.3 0.2-0.2 0.5-0.5 0.2-0.5v-0.8l-0.1-0.4-0.5-0.6-0.4-0.2-0.7-0.2zm-32.5 1.5l0.2 0.1 0.2 0.5v0.3 0.6-0.5l-0.2-0.3-0.2-0.5-0.2-0.2-0.4-0.2h0.1zm-2.1 0.1l-0.6 0.5v-0.1l0.6-0.4 0.8-0.2zm5.6-19.7l0.8 0.5 0.4 0.3 0.4 1.3 0.1 0.7-0.1 1.7-0.1 0.9-0.5 1.6-1.1 1.9-0.4 0.3h-0.3l-0.1-0.1 0.3-0.8 0.2-0.5-0.1-1-0.5-1.1-0.3-0.3-0.2-1.2 0.2-2.2 0.1-0.5 0.3-0.8 0.1-0.3 0.3-0.3 0.2-0.1zm204.7 8.1l1.3 0.6 0.9 0.4-0.7-0.2-1.3-0.7-0.2-0.1zm-0.7-0.8l0.4 0.5-0.3-0.2-0.2-0.4-0.1-0.8zm17.8-6.8l0.4 0.2 0.2 0.1 0.1 0.3v0.2l-0.4 0.6-1 1.2-0.4 0.5-0.7 0.6-0.2 0.3-0.4 0.2h-0.2l-0.3-0.2-0.1-0.2-0.3-0.6-0.2-0.6v-0.9-0.4l0.5-0.7 0.3-0.3 0.8-0.3h1.5zm-195-8.7l-0.8 0.9-0.2 0.3-0.5 0.6-0.1 0.1-0.2 0.1 0.1 0.1h0.2l0.3-0.1 1.1-0.4 0.7-0.3 1-0.4-1.2 1-0.2 0.2-0.3 0.5-0.1 0.6 0.2 0.3 0.4 0.4h0.8l0.3-0.2 0.3 0.2 0.3 1v0.4l-0.6 0.9-1.4 1.2-0.5 0.3-0.9 0.9-0.6 1.3v0.3l-0.4 0.8-1.2 0.8-0.5 0.3-1 0.2-0.4 0.1h-0.7-0.2l-0.3-0.3v-0.1l0.2-0.5 0.1-0.2-0.1-0.5-0.7-0.6-0.2-0.1v-0.4-0.3l0.5-0.8 0.2-0.4 0.8-1.2 0.5-0.7 1.2-1.5 0.6-0.8 1.6-1.9 0.8-0.9 1.9-2.2 1-1.1h0.1zm173.3 7.9l0.4 0.3 1.2 0.9 0.7 0.5 1.4 1.4 1.3 1.3-1.1-1-0.6-0.6-1.4-1.2-0.6-0.5-1.1-0.9-0.4-0.3-0.8-0.4h0.1zm-196.9 1.3h0.3l-0.3 0.1-0.2-0.1-0.1-0.9 0.1 0.9zm163.7-10.7l-0.1 0.3-0.6 0.7-0.3 0.5-0.4 0.8 0.1 0.9 0.1 0.1 0.1 0.4v0.2l-0.2 0.5-0.3 0.6-1 1.2-0.6 0.5-1.3 0.9-0.3 0.2-0.6 0.2-0.3 0.1h-0.5l-0.4-0.1-0.6-0.3-0.3-0.2-0.3-0.4-0.1-0.2v-0.5-0.3l0.3-0.6 0.2-0.3v0.1l-0.1 0.6 0.2 0.2 0.5 0.4 0.4-0.1 0.7-0.1 0.4-0.1 0.7-0.5 0.3-0.3 0.6-0.7 0.2-0.4v-1l-0.4-0.4h-0.4l-1 0.3 0.2-0.2 1.1-0.8 2.1-1.2 0.5-0.4 0.8-0.3 0.3-0.2 0.3-0.1zm-169 7.8h0.1l-0.1 0.1v-0.1l0.1-0.2zm3.8-0.7l-0.1-0.1c0 0 0.1 0.1 0.1 0.1zm-0.5-0.4l0.4 0.3c0 0-0.4-0.3-0.4-0.3zm-0.4 0l-0.5-0.1zm5.8-3.1l-0.6 1.8-0.5 1.2v0.1l0.4-1.1 0.7-2.2zm41.1-4.5l0.7 0.1 0.7 0.6 0.3 0.3-0.3 1.1-1.3 2-0.5 0.5-0.8 0.8-0.4 0.3-0.7 0.3-0.3 0.1-0.7-0.1-0.4-0.1-0.9-0.4-0.4-0.2-0.7-0.5-0.3-0.2-0.4-0.6-0.3-0.6 0.1-1.1 0.1-0.6 1.1-0.9 0.3-0.2 0.8-0.4 1.4-0.2 1.2-0.2zm-47.7 3.6l-0.3 0.7v0.3l-0.3 0.9v-0.1l0.2-0.6 0.2-0.7 0.2-0.6zm7-0.1l-0.1 0.4 0.1-0.6zm-0.1-1.7h0.2l0.1 0.4v0.2l-0.1 0.6v-0.3l-0.2-0.7-0.1-0.3zm1.5-15.8l0.6 0.5 0.4 0.4 1.1 0.5 1.7 0.4h0.4l0.6 0.1 0.2 0.1 0.1 0.3v0.3l-0.2 0.9-0.8 2-0.5 1.1-1.1 1.9-0.3 0.5-0.5 0.7-0.7 0.8-0.5 0.3-0.5 0.9 0.1 1.3 0.1 0.2v0.1l-0.2-0.1-0.2-0.1-0.3-0.4-0.8-0.9-0.5-0.7-1.1-0.8-0.2-0.2-0.5-0.1-0.4 0.1 0.1-0.7v-0.6h-0.1l-0.1 0.1 0.7-1.3 0.6-1.8 0.1-0.4 0.4-0.7 0.8-0.7 0.3-0.1 0.3-0.4-0.1-0.8-0.1-0.2 0.1-0.4 0.6-0.3h0.3l0.3-0.4-0.2-0.9-0.1-0.2-0.2-0.3v-0.1-0.1h0.1zm-3.8 12.9l-0.2-0.3-0.1-0.6zm206.5-11.7l0.3 0.9 0.2 0.4 0.5 0.6 0.9 0.1 0.2-0.2 0.2 0.3-0.2 1-0.2 0.5v0.6l0.4 0.1 0.3-0.2 0.4 0.5 0.4 1.5v0.7l-0.2 1-0.6 0.7h-0.3l-0.3 0.5 0.1 1 0.2 0.4-0.2 0.6-0.2 0.3-0.6 0.2-0.3 0.1-0.8-0.2-0.3-0.2-0.6-0.7-0.2-0.3-0.1-0.6 0.2-0.9 0.1-0.2-0.2-1.1-0.7-2-0.3-0.6-0.3-0.8-0.2-0.4v-0.6-0.3l0.2-0.7 0.6-1 0.3-0.4 0.4-0.5 0.2-0.2 0.3-0.1 0.1-0.1zm-31.4 3.4l1.8 1.3 0.5 0.5 1.1 0.8 1.4 0.5h0.4l0.7 0.5 0.3 0.2 0.3 0.8 0.1 0.4v0.9l-0.6 1.1-0.4 0.4-0.6 0.4-0.2 0.2h-0.6-0.3l-0.7-0.4-0.3-0.2-1.1-0.8-0.5-0.4-1.4-0.6-1.7-0.5h-0.6l-0.7-0.6-0.4-1.8v-0.8l0.5-1.1 0.3-0.5 1-0.4 0.5-0.2zm-175.5 6.7l0.1 0.5-0.2-0.6 0.1-0.2zm38.3-8.7l0.5 0.2 0.7 0.9 0.4 0.4 0.4 1 0.1 0.5-0.1 0.7-0.7 0.5h-0.3l-0.2 0.3 0.1 0.6 0.1 0.2-0.1 0.2-0.1 0.2-0.4 0.2-0.4 0.3-1.4 0.3-0.7 0.1h-1.5l-1.7-0.6-0.2-0.1-0.4-0.1h-0.3l-0.4 0.3-0.3 0.3-0.2 0.4 0.2-0.6 0.4-0.8v-0.2l-0.1-0.3h-0.1l-0.4 0.1-0.4 0.2-0.9 0.6-0.3 0.3 0.7-0.8 0.7-0.6 1.1-1.1 0.5-0.6 0.9-0.9 0.5-0.4 0.7-0.6 0.3-0.3 0.7-0.5 0.5-0.3 0.9-0.3zm-30.9-3.5l-0.1 0.7-0.2 0.3-0.4 0.5-0.5 0.2h-0.1l-0.2-0.2-0.1-0.2v-0.6-0.2l0.3-0.5 0.7-0.3h0.3zm150-37.2l0.7 0.1 1.2 0.4 1.1 1 0.2 0.4 0.8 0.6 1.6 0.5h0.6l1 0.5 0.9 1.5 0.2 0.6 0.5 0.7 1-0.2 0.3-0.2 0.9-0.4 0.5-0.1 1-0.1h0.5l0.8 0.1 0.6 0.5-0.1 0.2-0.4 0.8-0.2 0.4-0.8 1-0.3 0.4-0.7 0.7-0.8 0.6h-0.2l-0.1-0.6 0.2-1.2 0.1-0.2-0.1-0.3h-0.1l-0.4 0.2-0.2 0.1-0.6 0.5-1.2 1.2-0.9 0.9-1.3 1.2-0.7 0.5-1.1 0.5-0.6 0.1-1.1-0.3-0.6-0.2-1.4-0.9-0.4-0.3-0.5-0.5-0.3-0.3-0.2-0.4v-0.3l0.2-0.6 0.6-1.2 0.3-0.5 0.3-0.7 0.2-0.3-0.1-0.7v-0.3l-0.4-0.6-1-1.3-0.6-0.6-0.9-1.1-0.2-0.3-0.3-0.4-0.1-0.5v-0.1l0.2-0.3 0.1-0.1 0.5-0.1 0.5-0.1zm-49.3-24.1h0.8l1.3 0.2h0.6l0.8 0.3 0.4 0.4-0.1 0.3 0.5 0.5 1.3 0.4h0.6l1.5 0.3 2.2 0.7 1 0.5 1.7 0.1 0.5-0.1 1.1-0.3 1.9-0.7 1.1-0.4 1.9-0.6h0.1l0.5 0.3 0.5 0.2 1.2 0.4-0.6-0.1-1.1-0.2h-0.4-0.4l-0.1 0.1 0.2 0.3 0.8 0.9 0.2 0.3 0.7 0.5 0.5 0.2 1 0.5 3.5 1.2 1.3 0.3 2 0.6 0.9 0.3 1.3 0.8 0.5 0.4 0.5 0.9v1.4l-0.2 0.8v1.2l0.1 0.5 0.7 0.7 0.5 0.3 1.4 0.2 2.8-0.1 1-0.2 1.2-0.2 0.5-0.2 0.5-0.2 0.2-0.2-0.1-0.3-0.9-0.8-0.4-0.3-0.5-0.4-0.2-0.2-0.1-0.1v-0.1l0.3 0.1 0.9 0.2 0.5 0.2 1.2-0.2 1.6-0.9 0.4-0.4 1.1-0.5 1.5-0.1 0.5 0.2 0.4 0.4 0.1 0.5-0.1 0.2 0.1 0.7 0.7 1.2 0.3 0.3 0.3 0.5 0.1 0.1v0.2 0.1h-0.3l-0.8-0.3-0.3-0.1-0.5-0.1h-0.2-0.2l-0.1 0.1v0.3l0.2 0.7 0.1 0.4 0.1 0.4v0.2l-0.1 0.1h-0.1l-0.5-0.1-1.1-0.6-0.4-0.2-0.6-0.2-0.2-0.2h-0.4-0.1v0.2l0.1 0.6 0.1 0.2-0.1 0.5v0.3l-0.2 0.7-1.2 2.4-0.4 0.6-0.7 0.8-0.4 0.4-0.8 0.5-0.5 0.3-1 0.3-1.8 0.2-1 0.1-2-0.3-0.4-0.1-0.8-0.3-0.8-0.4-0.4-0.4-0.7-0.4-0.7-0.1-0.1 0.2-0.6-0.3-1-0.9-0.4-0.4-0.9-0.7-1.2-0.4h-0.2l-0.5-0.2h-0.3l-0.7-0.2-2.4-1-0.5-0.2-1.3-0.4-0.6-0.1-1.6-0.2-0.8-0.1-1.9 0.1-3.5 0.2h-1l-1.8 0.2h-0.9-1.4-0.7-0.9l-0.5-0.2v-0.2l-0.8-0.6-0.5-0.3-1.3-0.7-0.7-0.3-1.5-0.5-1.7-0.3h-0.2l-0.7 0.2-0.3 0.1-0.8 0.5-2.8 2.1-0.6 0.5-1.1 0.8-0.5 0.4-0.9 0.4-0.5 0.2-0.8 0.2-1.2-0.1-0.5-0.2-0.8-0.5-0.3-0.8 0.1-0.1-0.2-0.2h-0.2l-0.6-0.1-0.7-0.1-2.1 0.2-1 0.1-2.1 0.4-0.5 0.2-0.8 0.2-0.9 0.4-0.1 0.2-0.7 0.3-0.3 0.1-1 0.4-3.6 1.2-0.7 0.2-1.1 0.4-0.5 0.2-0.9 0.4-0.4 0.1-0.5 0.4-0.2 0.3 0.2 0.3-0.2 0.7-0.2 0.3-0.8 0.5-0.5 0.3-1.1 0.4-1.9 0.2h-1l-1.5 0.1-0.7 0.1-1.4 0.7-0.4 0.2-0.8 0.5-0.4 0.3-0.9 0.8-0.5 0.4-1.2 1-2 1.9-0.7 0.7-1.2 1.1-0.5 0.5-1.1 0.8-0.5 0.4-0.8 0.6-0.4 0.3-0.7 0.4-0.7 0.3h-1l-0.5-0.1-0.6-0.7-0.2-0.3-0.7-0.5-1.4-0.2h-0.4l-1.2-0.5-1.8-1.2-0.4-0.3-0.5-0.4-0.2-0.2-0.3-0.1h-0.2l-0.1 0.1-0.1 0.6v0.2l-0.2 0.2-0.1 0.1-0.3-0.1h-0.1l-0.5-0.4-0.8-0.8-0.6-0.6-0.7-1.2-0.3-0.6-0.3-1.2-0.1-0.6 0.2-1.2 0.8-1.8 0.2-0.4 0.3-0.4 0.1-0.1 0.2-0.1 0.1 0.2v0.7l0.1 0.2 0.2 0.2 0.1 0.1 0.4-0.2 0.3-0.1 0.7-0.5 1.3-1.1 0.5-0.6 0.8-0.8 0.3-0.4 0.4-0.7 0.1-0.2v-0.5l-0.4-0.5-0.2-0.2-0.3-0.2-0.1-0.1 0.1-0.1v-0.1l0.3-0.1h0.7 0.5l0.8-0.4 0.5-0.8v-0.3l0.2-0.3 0.4 0.1 0.2 0.2 0.7-0.3 1.2-1 0.2-0.3 0.4-0.4 0.1-0.1 0.2-0.1 0.1-0.1v0.2l-0.2 0.6-0.2 0.2-0.1 0.4v0.1 0.1h0.1l0.2-0.2 0.6-0.8 0.4-0.4 1.4-0.6 2.3-0.3 0.9 0.1 1.9-0.5 0.4-0.2 1-0.7 1.5-1.2 0.8-0.8 1.5-1 0.3-0.2 0.5-0.2h0.4l0.2 0.1 0.2-0.1 0.2-0.6v-0.2l0.3-0.3 0.1-0.2 0.6-0.4 0.7-0.4 1.7-0.7 0.9-0.3 1.8-0.4h0.4l0.7-0.1 0.7 0.2 0.3 0.2h0.9l1.6-0.5 1.3-0.7 2.5-1.1 1.1-0.5 1.8-0.6 0.9-0.3 1.2-0.2 1 0.3 0.1 0.2 0.4 0.3 0.3 0.1 0.6 0.2 0.7 0.1h1.8l0.9-0.1 1.9-0.5 2.5-1.1 0.4-0.2 0.6-0.4 0.3-0.1 0.4-0.2h0.1l0.2 0.1-0.1 0.3-0.2 0.3v0.6l0.4 0.4h0.3l0.5-0.3 0.5-0.7 0.1-0.1 0.7-0.3 0.4-0.2 1.1-0.2 1.3-0.2 3.3-0.1h0.8zm44.2 25.3l1.2 0.6 0.5 0.3 0.9 0.6 0.3 0.2 0.4 0.4 0.1 0.2-0.1 0.3-0.8 0.1h-0.2l-0.8-0.5-0.4-0.3-0.8-0.8-0.3-0.4-0.4-0.5-0.1-0.2v-0.1l0.1-0.1zm-20.1-23.1l0.2 0.2v0.2l-0.1 0.1-0.1 0.1 0.1-0.1 0.1-0.3zm-1.1-0.9l0.8 0.6-1-0.5-1.3-0.3h0.5zm-128.3 102l0.1 0.1 0.4 0.6h-0.2z"/>
		<path id="Layer" class="s2" d="m277.5 301.5h0.1l-0.1 0.4-0.4 0.9-0.1 0.2-0.6 0.7-0.3 0.4-0.8 0.9-0.9 1-2.2 2.1-0.6 0.5-1 0.9-0.5 0.4-0.8 0.7-0.4 0.3-0.5 0.3-0.3 0.1-0.1-0.1v-0.2l0.5-0.9 1-1.5 0.4-0.5 0.5-1.1v-1.1l-0.1-0.3 0.2-0.3 0.9-0.3h0.5l0.6-0.2 0.5-0.6v-0.3l0.7-0.7 1.8-1 0.6-0.3 0.8-0.3 0.3-0.1m-195.8-85.2l0.1 0.2 0.1 0.8 0.1 0.4 0.1 1.1v0.6l0.1 1.4v0.8l-0.1 1.7v0.9l-0.2 2-0.6 6.8v0.7l-0.2 1.2v0.5l-0.2 0.8v0.3l-0.1 0.2v0.1l-0.1-0.2v-0.2l-0.1-0.8v-0.4-1.3l-0.1-0.7v-1.9-1l-0.1-2.5v-1.9l0.1-3v-1.5l0.1-2.3 0.1-1 0.2-1.3v-0.3l0.2-0.3 0.2-0.2h0.1m-27.4-2.8v0.1l0.1 0.5v0.2 0.8 0.4l0.1 1.1v2 0.9 1.5 0.7 1.2l-0.1 0.5v0.8l-0.1 0.4-0.1 0.4-0.1 0.2h-0.1l-0.1-0.1-0.2-0.4v-0.2l-0.2-0.8-0.1-0.4-0.2-1.2-0.2-0.9v-2.5l0.5-3.4 0.2-0.8 0.3-0.8v-0.2l0.1-0.1 0.1-0.1m296 3.5l0.4 0.9v0.4l-0.7 1.1-0.4 0.6-1.2 1.3-0.6 0.6-1.3 0.9-1.6 0.7h-0.3l-0.6-0.3-0.4-0.2-0.4-0.6-0.2-0.3 0.2-0.3 1.1-0.1 0.6 0.1 1.1-0.5 1.2-1.5 0.3-0.7 0.7-1 0.4-0.4 0.8-0.6 0.3-0.2m-307.1 0.4l0.4 0.5 0.7 0.8 0.4 0.3 0.6 0.6 0.6 0.5 0.9 0.3 0.5 0.1 0.7-0.7 1-1.9 1.1-2.8 0.1 3.2v1l-0.1 1.3-0.1 0.6-0.6 0.6-0.3 0.2-1.1-0.1-0.7-0.1-1.9-0.6-0.7-0.2-1-0.4-0.5-0.3-0.7-0.6-0.3-0.3-0.5-0.8-0.5-1.5-0.8-3m297.4-1.1l0.3 0.4v0.2l0.1 0.9 0.1 1.9v0.6 1.1 0.4l-0.1 0.8v0.3l-0.1 0.5-0.1 0.2-0.1 0.1-0.1 0.1-0.1-0.1-0.1-0.2-0.2-0.4-0.1-0.2-0.2-0.7-0.1-0.4-0.2-1-0.2-0.9v-1.6l0.6-1.7 0.2-0.2 0.3-0.1m-289-21.1l1.2 1.1 0.1 0.2 0.1 0.6v0.3l0.1 0.9-0.2 2.7v0.8l-0.2 0.8v0.4l-0.1 0.3h-0.1v-0.4l-0.1-0.2v-1l-0.1-0.6-0.4-1.3-0.3-0.7-0.7-1.2-0.4-0.6-0.8-0.8-1.2-0.6h-0.2l-0.9 0.5-1.6 1.3-0.5 0.4-0.7 0.5-0.2 0.2-0.2 0.1 0.3-0.5 1.1-1.2 0.5-0.7 1.4-0.8 0.7-0.4 1.5-0.3 0.7-0.1m296.2 0.5l0.1 0.1 0.2 0.6 0.1 0.3 0.1 0.8 0.1 1.6v1.1 1.4l-0.1 0.6-0.1 0.6-0.1 0.3h-0.3l-0.2-0.1-0.5-0.5-0.3-0.2-0.3-1.2-0.1-0.6v-1.5l0.1-0.8 0.2-1.3 0.7-1.2 0.2-0.1m-44.9-21.2l0.1 0.2 0.1 0.5 0.1 0.6 0.2 1.8v0.9l0.1 2.4 0.1 1.2v2.6 1.4l-0.1 2.5v1.3l-0.1 2.2-0.1 1-0.2 1.5v0.3l-0.2 0.5-0.2 0.3-0.1 0.1-0.2-0.4-0.2-0.2-0.3-0.9-0.1-0.6-0.2-1.3-0.2-0.8-0.2-1.6-0.1-1.8-0.1-3.6v-1.8l0.2-3.2 0.1-0.8 0.2-1.4 0.1-0.6 0.2-1 0.2-0.5 0.3-0.6 0.4-0.4h0.1m28-3.8l0.3 0.1 0.7 0.6 1.4 1.2 0.9 0.8 1.6 1.8 0.8 0.9 1.2 1.7 0.6 0.7 0.6 1.2 0.1 0.3v0.3l-0.2 0.2h-0.1l-0.6-0.4-0.3-0.2-0.9-0.7-0.5-0.5-1-1-0.6-0.6-1.2-1.2-0.5-0.6-0.9-1.1-0.5-0.5-0.6-0.9-0.3-0.4-0.4-0.8-0.2-0.3-0.1-0.4v-0.2l0.1-0.1 0.2-0.1m-108.1-2l-0.8 1.5-2 2.4-3.6 2.7-0.6 0.3-1 0.4-0.4 0.2-0.8 0.3-0.3 0.1h-0.4-0.1v-0.3l0.1-0.1 0.6-0.7 0.4-0.4 1-1.2 0.6-0.6 1.4-1.3 2.3-2.2 5.9-5.4m-45.2 2.7l0.2 0.2 0.8 0.7 0.4 0.4 1.1 1.1 1.7 1.7 0.5 0.6 0.9 0.9 0.4 0.4 0.7 0.7 0.3 0.4 0.3 0.5 0.2 0.2 0.1 0.3v0.2l-0.2 0.1h-0.1l-0.4-0.1-0.2-0.1-0.7-0.2-0.4-0.2-0.9-0.4-0.2-0.2-0.5-0.4-0.3-0.3-0.6-0.7-0.7-0.8-1.3-1.8-0.6-1-0.8-1.5-0.2-0.3-0.1-0.5 0.1-0.3h0.1m-92.2-3.8l0.2 0.2 0.3 0.5 0.1 0.4 0.1 0.9 0.1 1.8v1.1l-0.3 1.7-0.1 0.4-0.2 0.5-0.4 0.3h-0.3l-0.4-0.5-0.2-0.4-0.1-0.9v-0.5l-0.3-1.1-0.8-1.3-0.3-0.4-0.3-0.7-0.1-0.4 0.3-0.7 0.1-0.3 0.7-0.5 1.3-0.3h0.2m230.2-0.4l0.8 1.3 0.1 0.4-0.1 0.4-0.6-0.1-0.3-0.1-0.6 0.1-0.6 0.6-0.1 0.2-0.1 0.2h-0.1l-0.1-0.2-0.1-0.1-0.1-1.1v-0.6l0.3-0.8 0.2-0.4 0.5-0.1 0.3-0.1m-217-5.8l0.1 0.1 0.2 0.3 0.3 1.6v0.7l-0.3 1.2-0.7 0.7h-0.3l-0.4-0.6-0.2-0.3-0.1-1v-0.6l0.3-1 0.7-1 0.1-0.1m191.9-13l0.5 0.3 1.1 0.9 0.6 0.5 1.3 1.2 0.7 0.6 1.4 1.3 0.7 0.7 1.3 1.3 0.7 0.7 1 1.2 0.5 0.5 0.8 1 0.4 0.8v0.2 0.2l-0.1 0.1-0.2-0.1h-0.2l-0.7-0.4-0.4-0.2-1.4-0.8-0.7-0.4-1.3-0.6-1.3-0.6-0.2-0.1-0.4-0.7-0.5-1.4v-0.3l-0.3-0.7-0.2-0.3-0.5-0.7-2.2-2.3-0.5-0.4-0.7-0.6-0.3-0.3-0.3-0.4-0.1-0.2 0.1-0.3 0.5-0.1h0.2m24.2 4.4l0.5 0.8 0.3 0.4 0.2 0.8 0.1 0.3-0.1 0.8-0.1 0.7-0.9 1.2-0.5 0.5-1.3 0.3h-0.4l-0.6-0.2-0.4-0.1-0.6-0.6-0.4-0.3-0.2-0.6-0.1-0.2 0.1-0.4 0.1-0.1 0.6-0.1 1.2 0.1 0.4 0.1 0.6 0.1h0.2l0.4-0.3 0.2-0.1 0.1-0.5 0.1-1.1v-0.5l0.1-0.7v-0.3l0.1-0.2h0.1m-218.7-18.6l-0.3 1.3-0.1 0.5 0.3 1.4 1.2 1.9 0.4 0.4 0.6 0.7 0.2 0.3 0.1 0.8 0.1 0.4-0.3 1.1-0.8 2.3-0.4 1.2-0.8 1.7-0.3 0.8-0.6 1-0.3 0.3-0.4 0.1-0.1-0.1-0.1-0.8v-0.7l-0.4-1-0.2-0.5-0.7-0.6-0.4-0.3-0.8-0.1-1.4 0.6-0.3 0.2-0.4 0.3-0.2 0.1-0.1 0.1h-0.1l0.1-0.3 0.4-0.7 0.3-0.4 0.5-1.2 0.4-1.7 0.1-0.2 0.2-0.8 0.1-0.4 0.4-0.9 0.4-1 1.1-2.3 0.5-1.1 1-1.7 0.2-0.4 0.4-0.6 0.3-0.3h0.1m212.4 1.5l0.1 0.1 0.5 0.8 1 2.1 0.7 1.6 1 2.5 0.5 1.2 0.4 1.7 0.2 0.8v0.8l-0.1 0.2-0.2 0.1h-0.5l-0.3-0.2-1 0.3-1.6 1-0.3 0.4-0.6 0.4-0.2 0.2h-0.4l-0.2-0.1-0.3-0.5-0.2-0.3-0.4-1-0.3-0.7-0.7-1.8-0.9-2.5-0.2-0.5-0.2-0.7-0.1-0.3 0.1-0.5v-0.2l0.4-0.3 0.9-0.4 0.5-0.1 0.9-0.9 0.8-1.8 0.1-0.6 0.2-0.6 0.1-0.2m-180.5-2.5l-0.1 0.2-0.3 0.8-0.9 2-0.5 1.1-1.2 1.9-0.3 0.4-0.5 0.7-0.6 0.6-0.4 0.4-1.5 0.7-0.7 0.4-1.6 0.7-0.8 0.3-1.1 0.4h-0.2-0.2-0.1l0.2-0.2 0.1-0.1 0.5-0.5 0.2-0.4 0.8-0.8 2.9-3.4 1-1.2 2.1-2.1 0.5-0.5 0.8-0.8 0.9-0.6 0.3-0.2 0.5-0.1 0.1-0.1m167.4-19.2l0.3 0.2 0.2 0.1 0.4 0.5 0.5 0.5 1.3 1.7 2.3 3.4 0.6 1 0.8 1.3 0.3 0.7 0.3 0.8 0.1 0.4-0.2 0.7-0.8 0.9-0.4 0.4-0.6 1-0.5 1.1v0.5l-0.3 0.4-0.3 0.1-0.7-0.5-0.4-0.4-1.2-1.3-0.5-0.8-1.4-2.2-0.5-0.7-0.7-1.2-0.4-0.6-0.5-0.9-0.2-0.4-0.4-0.7-0.1-0.3-0.2-0.4-0.1-0.4 0.3-0.2 1.1 0.3 0.4 0.1 0.5-0.1 0.3-0.1 0.3-0.6 0.1-0.4 0.1-1.1-0.2-2.1v-0.3l0.1-0.3v-0.1h0.2m-7.4-9.4l0.2 0.2 0.7 0.6 1.2 1.2 0.6 0.8 1.2 1.2 0.5 0.6 0.8 1 0.4 0.4 0.5 0.6 0.2 0.3 0.3 0.5 0.1 0.1v0.2 0.1l-0.2 0.1-1.3-0.4-0.6-0.2-1.1 0.3-0.5 0.1-0.6 0.8-0.2 0.4v0.9l1 1.3 0.4 0.2 0.3 0.4-0.4 0.3h-0.1l-0.4-0.2-0.3-0.1-0.5-0.4-0.6-0.4-1.1-1.1-0.6-0.7-1.2-1.5-1.6-2-0.4-0.5-0.4-0.5-0.1-0.3-0.1-0.2v-0.1h0.3l0.9 0.3 0.5 0.1 0.7-0.1 0.4-0.1 0.5-0.7 0.2-0.4 0.2-1-0.3-1.8-0.1-0.3 0.1-0.1 0.1-0.1m-60.2-39.5l1.2 0.7 0.2 0.3-0.1 0.4-0.1 0.1-0.7 0.1h-0.3l-1.1-0.2-0.6-0.2-1.3-0.5-0.4-0.2-0.6-0.3-0.2-0.1v-0.1-0.1l0.5-0.1h1.4 0.7m-37.3-1.8l0.4 0.7v0.3l-0.6 0.4-1.5 0.3h-0.5l-0.7-0.3-0.3-0.2 0.1-0.5 0.2-0.3 0.7-0.4 1.2-0.3h0.4z"/>
		<path id="Layer" class="s3" d="m244.6 135.3l-0.2-0.2 0.1-0.7 0.1-0.3 0.6-0.8 0.3-0.3 0.8-0.6 1.3-0.4h0.4l0.4 0.4v1l-0.2 0.4-0.5 0.7-0.3 0.3-0.8 0.5-0.4 0.2-0.7 0.1h-0.4z"/>
	</g>
</svg>