<?xml version="1.0" encoding="UTF-8"?>
<svg version="1.1" xmlns="http://www.w3.org/2000/svg" width="164" height="52">
<path d="M0 0 C7.72888016 6.62475442 7.72888016 6.62475442 10.25 9.3125 C12.76896561 12.16571296 12.76896561 12.16571296 16 13 C16.23589844 12.43796875 16.47179687 11.8759375 16.71484375 11.296875 C18.29803419 8.46734314 20.25193974 6.51976385 22.5625 4.25 C23.36816406 3.45078125 24.17382812 2.6515625 25.00390625 1.828125 C27 0 27 0 28 0 C28 10.56 28 21.12 28 32 C20.125 25.25 20.125 25.25 16.81640625 21.9140625 C16.11708984 21.21152344 15.41777344 20.50898438 14.69726562 19.78515625 C13.64055664 18.71587891 13.64055664 18.71587891 12.5625 17.625 C11.46518555 16.52091797 11.46518555 16.52091797 10.34570312 15.39453125 C8.56148584 13.59865241 6.78041364 11.7996498 5 10 C4.67 16.93 4.34 23.86 4 31 C2.68 31 1.36 31 0 31 C0 20.77 0 10.54 0 0 Z M23 10 C21.02 12.31 19.04 14.62 17 17 C19.31232422 19.56249975 19.31232422 19.56249975 22 22 C22.99 22 23.98 22 25 22 C25 18.37 25 14.74 25 11 C24.34 10.67 23.68 10.34 23 10 Z " fill="#593C6F" transform="translate(11,8)"/>
<path d="M0 0 C2.4375 1.5 2.4375 1.5 4 3 C3.67 3.99 3.34 4.98 3 6 C2.278125 5.649375 1.55625 5.29875 0.8125 4.9375 C-2.32982572 3.89005809 -3.87318269 4.0445836 -7 5 C-8.49743119 6.49743119 -8.33202693 7.98824239 -8.5625 10.0625 C-8.706875 11.361875 -8.85125 12.66125 -9 14 C-5.7 14 -2.4 14 1 14 C1 14.99 1 15.98 1 17 C-2.3 17 -5.6 17 -9 17 C-9 20.3 -9 23.6 -9 27 C-10.32 26.67 -11.64 26.34 -13 26 C-13.05413245 23.10391407 -13.09373641 20.20884805 -13.125 17.3125 C-13.14175781 16.49587891 -13.15851563 15.67925781 -13.17578125 14.83789062 C-13.21872886 9.53386049 -13.10394706 5.25979499 -9.3125 1.1875 C-6.03424007 -0.49593078 -3.63361098 -0.38931546 0 0 Z " fill="#593B6E" transform="translate(108,20)"/>
<path d="M0 0 C1.32 0 2.64 0 4 0 C4.33 4.62 4.66 9.24 5 14 C6.65 14.33 8.3 14.66 10 15 C12.77042109 12.22957891 12.39796106 10.23466195 12.625 6.375 C12.69976562 5.18648437 12.77453125 3.99796875 12.8515625 2.7734375 C12.90054688 1.85820312 12.94953125 0.94296875 13 0 C14.32 0 15.64 0 17 0 C17.05441656 1.89551022 17.09298035 3.7914792 17.125 5.6875 C17.14820312 6.74324219 17.17140625 7.79898437 17.1953125 8.88671875 C16.9948036 12.08283066 16.49234713 14.17837678 15 17 C11.24952518 19.50031654 9.44143734 19.53603554 5 19 C2.0625 17.375 2.0625 17.375 0 14 C-0.41481696 9.30405924 -0.28626268 4.70106938 0 0 Z " fill="#503266" transform="translate(45,20)"/>
<path d="M0 0 C7.875 6.75 7.875 6.75 11 11 C10.34 11 9.68 11 9 11 C8.67 11.66 8.34 12.32 8 13 C7.01 12.01 6.02 11.02 5 10 C4.67 16.93 4.34 23.86 4 31 C2.68 31 1.36 31 0 31 C0 20.77 0 10.54 0 0 Z " fill="#54386B" transform="translate(11,8)"/>
<path d="M0 0 C0.66 0.66 1.32 1.32 2 2 C1.67 2.66 1.34 3.32 1 4 C-1.64 3.67 -4.28 3.34 -7 3 C-7 3.99 -7 4.98 -7 6 C-5.906875 6.103125 -4.81375 6.20625 -3.6875 6.3125 C0 7 0 7 2 8.1875 C3 10 3 10 2.875 13.0625 C2 16 2 16 -1 18 C-7.27618412 18.56037358 -7.27618412 18.56037358 -9.9375 16.5 C-10.288125 16.005 -10.63875 15.51 -11 15 C-7.1496895 12.43312633 -5.41430237 13.16711276 -1 14 C-1.33 13.01 -1.66 12.02 -2 11 C-4.31847874 10.2833793 -6.65319703 9.61757973 -9 9 C-9.66 8.34 -10.32 7.68 -11 7 C-10.875 4 -10.875 4 -10 1 C-6.79790284 -1.72771239 -3.88117822 -1.01248127 0 0 Z " fill="#4C2D64" transform="translate(78,21)"/>
<path d="M0 0 C2.375 1.5 2.375 1.5 4 3 C3.67 3.99 3.34 4.98 3 6 C2.06027344 5.85691406 2.06027344 5.85691406 1.1015625 5.7109375 C0.28429687 5.60007812 -0.53296875 5.48921875 -1.375 5.375 C-2.18710938 5.25898438 -2.99921875 5.14296875 -3.8359375 5.0234375 C-4.55007812 5.01570313 -5.26421875 5.00796875 -6 5 C-6.66 5.66 -7.32 6.32 -8 7 C-7.67673447 10.59679066 -7.67673447 10.59679066 -7 14 C-3.33694766 14.74926071 -0.57644848 15.2380014 3 14 C3 15.32 3 16.64 3 18 C-0.23415916 19.61707958 -3.50375265 19.56822376 -7 19 C-10.14249107 16.97047452 -11.63745366 15.53044369 -12.51171875 11.83984375 C-12.75802839 8.56118881 -12.73398271 6.08469117 -10.85546875 3.30859375 C-7.42550194 0.13202818 -4.54048052 -0.78964879 0 0 Z " fill="#401D5A" transform="translate(139,20)"/>
<path d="M0 0 C0 9.9 0 19.8 0 30 C-2.31 28.02 -4.62 26.04 -7 24 C-7 23.01 -7 22.02 -7 21 C-6.01 20.34 -5.02 19.68 -4 19 C-3.82073777 15.81062611 -3.93433248 12.76761486 -4.1171875 9.5859375 C-4.23145879 6.36094765 -4.20312773 4.34995375 -2.5625 1.5234375 C-1 0 -1 0 0 0 Z " fill="#45245D" transform="translate(39,10)"/>
<path d="M0 0 C1.35015859 4.05047576 0.62084998 6.7920168 0 11 C3.3 11 6.6 11 10 11 C10 11.99 10 12.98 10 14 C6.37 14 2.74 14 -1 14 C-1 16.97 -1 19.94 -1 23 C-1.33 23 -1.66 23 -2 23 C-2.05789006 19.54173658 -2.09355821 16.08359707 -2.125 12.625 C-2.14175781 11.64015625 -2.15851563 10.6553125 -2.17578125 9.640625 C-2.18222656 8.69960938 -2.18867187 7.75859375 -2.1953125 6.7890625 C-2.20578613 5.91975098 -2.21625977 5.05043945 -2.22705078 4.15478516 C-2 2 -2 2 0 0 Z " fill="#391654" transform="translate(99,23)"/>
<path d="M0 0 C2.375 1.5 2.375 1.5 4 3 C3.67 3.99 3.34 4.98 3 6 C2.06027344 5.85691406 2.06027344 5.85691406 1.1015625 5.7109375 C0.28429687 5.60007812 -0.53296875 5.48921875 -1.375 5.375 C-2.18710938 5.25898438 -2.99921875 5.14296875 -3.8359375 5.0234375 C-4.55007812 5.01570313 -5.26421875 5.00796875 -6 5 C-7.95216435 6.95216435 -8.84826645 8.53199953 -10 11 C-10 9.68 -10 8.36 -10 7 C-10.66 7 -11.32 7 -12 7 C-9.5923945 1.18162005 -6.29197967 -0.78649746 0 0 Z " fill="#44235D" transform="translate(139,20)"/>
<path d="M0 0 C0.99 0 1.98 0 3 0 C3 6.27 3 12.54 3 19 C2.01 19 1.02 19 0 19 C0 12.73 0 6.46 0 0 Z " fill="#3B1655" transform="translate(117,20)"/>
<path d="M0 0 C0.99 0 1.98 0 3 0 C3 6.27 3 12.54 3 19 C2.01 19 1.02 19 0 19 C0 12.73 0 6.46 0 0 Z " fill="#3D1B57" transform="translate(87,20)"/>
<path d="M0 0 C0.33 0 0.66 0 1 0 C1 7.59 1 15.18 1 23 C0.34 22.67 -0.32 22.34 -1 22 C-1 16.39 -1 10.78 -1 5 C-1.66 4.67 -2.32 4.34 -3 4 C-2.02727325 2.64664105 -1.0260734 1.31337396 0 0 Z " fill="#2F084C" transform="translate(38,10)"/>
<path d="M0 0 C3.3 0 6.6 0 10 0 C10 0.99 10 1.98 10 3 C7.03 3 4.06 3 1 3 C0.67 2.01 0.34 1.02 0 0 Z " fill="#3C1957" transform="translate(99,34)"/>
<path d="M0 0 C0.99 0 1.98 0 3 0 C3 0.99 3 1.98 3 3 C3.99 3.33 4.98 3.66 6 4 C5.67 4.66 5.34 5.32 5 6 C3.68 5.67 2.36 5.34 1 5 C0.67 3.35 0.34 1.7 0 0 Z " fill="#46255E" transform="translate(67,24)"/>
<path d="M0 0 C0 1.32 0 2.64 0 4 C-3 5 -3 5 -5 5 C-5.99 5.495 -5.99 5.495 -7 6 C-5.52522876 2.59668175 -4.14385429 0 0 0 Z " fill="#4D2E65" transform="translate(103,20)"/>
<path d="M0 0 C1.65 0.33 3.3 0.66 5 1 C5 2.32 5 3.64 5 5 C2.525 4.01 2.525 4.01 0 3 C0 2.01 0 1.02 0 0 Z " fill="#472760" transform="translate(47,34)"/>
<path d="M0 0 C0.99 0.33 1.98 0.66 3 1 C3 1.66 3 2.32 3 3 C2.34 3 1.68 3 1 3 C1 5.97 1 8.94 1 12 C0.67 12 0.34 12 0 12 C0 8.04 0 4.08 0 0 Z " fill="#2B0547" transform="translate(97,34)"/>
<path d="M0 0 C0.99 0.66 1.98 1.32 3 2 C2.67 2.99 2.34 3.98 2 5 C-0.64 4.34 -3.28 3.68 -6 3 C-6 2.67 -6 2.34 -6 2 C-4.02 2 -2.04 2 0 2 C0 1.34 0 0.68 0 0 Z " fill="#5A3E6F" transform="translate(140,21)"/>
<path d="M0 0 C2.31 0.66 4.62 1.32 7 2 C7 2.33 7 2.66 7 3 C5.35 3 3.7 3 2 3 C1.67 3.99 1.34 4.98 1 6 C1 5.01 1 4.02 1 3 C0.34 3 -0.32 3 -1 3 C-0.67 2.01 -0.34 1.02 0 0 Z " fill="#573B6D" transform="translate(69,21)"/>
</svg>
